<?xml version="1.0" encoding="UTF-8"?>
<svg xmlns="http://www.w3.org/2000/svg" width="1260" height="320" viewBox="210 315 1260 320" role="img" aria-label="sshoosh logo">
  <defs>
    <filter id="glowWide" x="-8%" y="-12%" width="116%" height="124%" color-interpolation-filters="sRGB">
      <feGaussianBlur stdDeviation="9"/>
    </filter>
    <filter id="glowTight" x="-5%" y="-8%" width="110%" height="116%" color-interpolation-filters="sRGB">
      <feGaussianBlur stdDeviation="3.2"/>
    </filter>
  </defs>
  <!-- vector glow layers traced from the logo silhouette -->
  <path d="M1171.5,411.5 L1170.5,412.5 L1170.5,419.5 L1169.5,420.5 L1160.5,420.5 L1160.5,428.5 L1159.5,429.5 L1151.5,429.5 L1151.5,431.5 L1150.5,432.5 L1150.5,436.5 L1149.5,437.5 L1142.5,437.5 L1142.5,453.5 L1141.5,454.5 L1137.5,454.5 L1136.5,455.5 L1134.5,455.5 L1134.5,472.5 L1133.5,473.5 L1132.5,473.5 L1130.5,475.5 L1129.5,475.5 L1129.5,476.5 L1128.5,477.5 L1128.5,479.5 L1126.5,481.5 L1126.5,490.5 L1127.5,491.5 L1131.5,491.5 L1132.5,492.5 L1132.5,493.5 L1132.5,492.5 L1133.5,491.5 L1134.5,492.5 L1134.5,499.5 L1135.5,500.5 L1141.5,500.5 L1142.5,501.5 L1141.5,502.5 L1138.5,502.5 L1139.5,502.5 L1140.5,503.5 L1141.5,502.5 L1142.5,503.5 L1142.5,508.5 L1179.5,508.5 L1180.5,509.5 L1208.5,509.5 L1209.5,510.5 L1209.5,529.5 L1208.5,530.5 L1204.5,530.5 L1203.5,531.5 L1201.5,531.5 L1201.5,538.5 L1200.5,539.5 L1199.5,539.5 L1198.5,538.5 L1198.5,537.5 L1198.5,538.5 L1197.5,539.5 L1194.5,539.5 L1193.5,540.5 L1108.5,540.5 L1107.5,541.5 L1107.5,547.5 L1106.5,548.5 L1101.5,548.5 L1100.5,549.5 L1100.5,551.5 L1099.5,552.5 L1099.5,559.5 L1098.5,560.5 L1098.5,563.5 L1097.5,564.5 L1091.5,564.5 L1090.5,565.5 L1090.5,573.5 L1220.5,573.5 L1220.5,566.5 L1221.5,565.5 L1222.5,566.5 L1222.5,568.5 L1223.5,567.5 L1225.5,567.5 L1223.5,567.5 L1222.5,566.5 L1223.5,565.5 L1231.5,565.5 L1231.5,558.5 L1232.5,557.5 L1239.5,557.5 L1240.5,556.5 L1240.5,550.5 L1241.5,549.5 L1245.5,549.5 L1246.5,548.5 L1246.5,547.5 L1247.5,546.5 L1248.5,546.5 L1248.5,537.5 L1249.5,536.5 L1249.5,534.5 L1250.5,533.5 L1252.5,533.5 L1253.5,532.5 L1253.5,531.5 L1254.5,530.5 L1255.5,530.5 L1256.5,529.5 L1256.5,528.5 L1255.5,527.5 L1255.5,525.5 L1256.5,524.5 L1256.5,515.5 L1257.5,514.5 L1257.5,513.5 L1260.5,510.5 L1262.5,510.5 L1262.5,509.5 L1263.5,508.5 L1264.5,508.5 L1264.5,490.5 L1258.5,490.5 L1257.5,489.5 L1257.5,482.5 L1256.5,481.5 L1251.5,481.5 L1250.5,480.5 L1250.5,473.5 L1213.5,473.5 L1212.5,472.5 L1198.5,472.5 L1197.5,473.5 L1187.5,473.5 L1186.5,472.5 L1185.5,473.5 L1184.5,472.5 L1184.5,456.5 L1185.5,455.5 L1191.5,455.5 L1192.5,454.5 L1192.5,448.5 L1193.5,447.5 L1194.5,447.5 L1195.5,448.5 L1198.5,448.5 L1199.5,447.5 L1203.5,447.5 L1204.5,446.5 L1281.5,446.5 L1281.5,445.5 L1282.5,444.5 L1282.5,438.5 L1283.5,437.5 L1288.5,437.5 L1289.5,436.5 L1289.5,431.5 L1290.5,430.5 L1290.5,426.5 L1291.5,425.5 L1291.5,422.5 L1292.5,421.5 L1294.5,421.5 L1295.5,420.5 L1297.5,420.5 L1297.5,412.5 L1276.5,412.5 L1275.5,411.5 L1178.5,411.5 L1177.5,412.5 L1172.5,412.5 Z M1009.5,411.5 L1008.5,412.5 L1004.5,412.5 L1004.5,419.5 L1003.5,420.5 L991.5,420.5 L990.5,421.5 L990.5,428.5 L989.5,429.5 L981.5,429.5 L981.5,435.5 L979.5,437.5 L978.5,436.5 L977.5,437.5 L973.5,437.5 L973.5,443.5 L972.5,444.5 L972.5,448.5 L971.5,449.5 L971.5,450.5 L969.5,452.5 L969.5,453.5 L968.5,454.5 L966.5,454.5 L965.5,455.5 L965.5,469.5 L964.5,470.5 L965.5,471.5 L963.5,473.5 L956.5,473.5 L956.5,489.5 L955.5,490.5 L954.5,490.5 L949.5,495.5 L949.5,507.5 L948.5,508.5 L948.5,510.5 L949.5,511.5 L948.5,512.5 L944.5,512.5 L943.5,513.5 L941.5,513.5 L940.5,514.5 L940.5,530.5 L937.5,533.5 L937.5,534.5 L936.5,535.5 L935.5,535.5 L935.5,536.5 L934.5,537.5 L934.5,538.5 L932.5,540.5 L932.5,556.5 L933.5,557.5 L939.5,557.5 L940.5,558.5 L940.5,564.5 L941.5,565.5 L947.5,565.5 L948.5,566.5 L948.5,573.5 L1058.5,573.5 L1058.5,571.5 L1059.5,570.5 L1059.5,568.5 L1060.5,567.5 L1062.5,567.5 L1060.5,567.5 L1059.5,566.5 L1060.5,565.5 L1071.5,565.5 L1071.5,564.5 L1072.5,563.5 L1072.5,558.5 L1073.5,557.5 L1080.5,557.5 L1081.5,556.5 L1081.5,549.5 L1082.5,548.5 L1086.5,548.5 L1089.5,545.5 L1089.5,532.5 L1090.5,531.5 L1091.5,532.5 L1092.5,532.5 L1093.5,531.5 L1095.5,531.5 L1096.5,530.5 L1096.5,528.5 L1097.5,527.5 L1097.5,518.5 L1098.5,517.5 L1097.5,516.5 L1097.5,513.5 L1099.5,511.5 L1099.5,510.5 L1100.5,509.5 L1101.5,509.5 L1104.5,506.5 L1104.5,505.5 L1103.5,504.5 L1103.5,503.5 L1104.5,502.5 L1104.5,495.5 L1106.5,493.5 L1107.5,494.5 L1107.5,495.5 L1107.5,494.5 L1108.5,493.5 L1107.5,493.5 L1106.5,492.5 L1107.5,491.5 L1109.5,491.5 L1109.5,482.5 L1110.5,481.5 L1111.5,481.5 L1111.5,480.5 L1113.5,478.5 L1113.5,476.5 L1114.5,475.5 L1115.5,475.5 L1117.5,473.5 L1117.5,464.5 L1118.5,463.5 L1118.5,462.5 L1117.5,461.5 L1119.5,459.5 L1119.5,458.5 L1122.5,455.5 L1123.5,455.5 L1124.5,454.5 L1125.5,454.5 L1125.5,429.5 L1118.5,429.5 L1117.5,428.5 L1117.5,420.5 L1110.5,420.5 L1109.5,419.5 L1109.5,412.5 L1104.5,412.5 L1103.5,411.5 L1095.5,411.5 L1094.5,412.5 L1092.5,412.5 L1091.5,411.5 Z M1027.5,447.5 L1028.5,446.5 L1062.5,446.5 L1065.5,449.5 L1067.5,449.5 L1069.5,451.5 L1069.5,453.5 L1068.5,454.5 L1069.5,455.5 L1069.5,456.5 L1068.5,457.5 L1063.5,457.5 L1063.5,480.5 L1062.5,481.5 L1054.5,481.5 L1054.5,498.5 L1053.5,499.5 L1052.5,499.5 L1050.5,501.5 L1050.5,506.5 L1046.5,510.5 L1045.5,510.5 L1045.5,529.5 L1044.5,530.5 L1038.5,530.5 L1037.5,531.5 L1037.5,534.5 L1036.5,535.5 L1036.5,539.5 L1035.5,540.5 L1034.5,539.5 L1032.5,539.5 L1031.5,540.5 L1012.5,540.5 L1011.5,539.5 L1000.5,539.5 L999.5,540.5 L992.5,540.5 L991.5,539.5 L991.5,537.5 L991.5,539.5 L990.5,540.5 L989.5,539.5 L989.5,530.5 L990.5,529.5 L991.5,529.5 L993.5,527.5 L994.5,527.5 L994.5,526.5 L997.5,523.5 L997.5,509.5 L998.5,508.5 L998.5,507.5 L999.5,506.5 L1000.5,506.5 L1001.5,505.5 L1003.5,505.5 L1003.5,504.5 L1004.5,503.5 L1004.5,492.5 L1005.5,491.5 L1006.5,491.5 L1006.5,490.5 L1007.5,489.5 L1009.5,489.5 L1009.5,488.5 L1011.5,486.5 L1011.5,475.5 L1012.5,474.5 L1013.5,474.5 L1014.5,473.5 L1018.5,473.5 L1018.5,462.5 L1019.5,461.5 L1019.5,456.5 L1020.5,455.5 L1021.5,455.5 L1022.5,454.5 L1023.5,455.5 L1024.5,455.5 L1025.5,454.5 L1027.5,454.5 Z M829.5,411.5 L828.5,412.5 L828.5,419.5 L827.5,420.5 L819.5,420.5 L818.5,421.5 L818.5,427.5 L817.5,428.5 L814.5,428.5 L813.5,429.5 L809.5,429.5 L809.5,435.5 L807.5,437.5 L800.5,437.5 L800.5,447.5 L798.5,449.5 L798.5,451.5 L797.5,452.5 L796.5,452.5 L796.5,453.5 L795.5,454.5 L794.5,454.5 L792.5,456.5 L792.5,472.5 L791.5,473.5 L784.5,473.5 L784.5,487.5 L783.5,488.5 L783.5,490.5 L779.5,494.5 L778.5,494.5 L775.5,497.5 L775.5,511.5 L774.5,512.5 L771.5,512.5 L771.5,513.5 L770.5,514.5 L769.5,514.5 L768.5,515.5 L767.5,515.5 L767.5,521.5 L766.5,522.5 L766.5,523.5 L767.5,524.5 L767.5,531.5 L765.5,533.5 L765.5,534.5 L764.5,535.5 L764.5,536.5 L763.5,537.5 L762.5,537.5 L762.5,538.5 L760.5,540.5 L759.5,540.5 L759.5,556.5 L760.5,557.5 L766.5,557.5 L767.5,558.5 L766.5,559.5 L767.5,560.5 L767.5,564.5 L768.5,565.5 L774.5,565.5 L775.5,566.5 L775.5,573.5 L885.5,573.5 L885.5,569.5 L886.5,568.5 L886.5,566.5 L887.5,565.5 L897.5,565.5 L898.5,564.5 L898.5,558.5 L899.5,557.5 L906.5,557.5 L907.5,556.5 L907.5,549.5 L908.5,548.5 L915.5,548.5 L915.5,537.5 L916.5,536.5 L916.5,532.5 L917.5,531.5 L922.5,531.5 L922.5,530.5 L923.5,529.5 L923.5,524.5 L924.5,523.5 L924.5,515.5 L923.5,514.5 L927.5,510.5 L928.5,510.5 L928.5,509.5 L929.5,508.5 L930.5,508.5 L930.5,507.5 L932.5,505.5 L932.5,498.5 L933.5,497.5 L933.5,491.5 L935.5,489.5 L935.5,488.5 L936.5,487.5 L938.5,487.5 L938.5,485.5 L939.5,484.5 L939.5,483.5 L940.5,482.5 L940.5,472.5 L943.5,469.5 L944.5,469.5 L944.5,468.5 L945.5,467.5 L946.5,467.5 L946.5,465.5 L948.5,463.5 L948.5,455.5 L949.5,454.5 L950.5,455.5 L950.5,456.5 L950.5,454.5 L949.5,453.5 L951.5,451.5 L951.5,450.5 L954.5,447.5 L954.5,446.5 L955.5,445.5 L955.5,429.5 L949.5,429.5 L948.5,428.5 L948.5,421.5 L947.5,420.5 L940.5,420.5 L939.5,419.5 L939.5,412.5 L935.5,412.5 L934.5,411.5 L840.5,411.5 L839.5,412.5 L836.5,412.5 L835.5,411.5 L834.5,411.5 L833.5,412.5 L832.5,412.5 L831.5,411.5 L830.5,412.5 Z M853.5,447.5 L854.5,446.5 L855.5,447.5 L855.5,448.5 L856.5,448.5 L858.5,446.5 L897.5,446.5 L898.5,447.5 L898.5,451.5 L897.5,452.5 L896.5,451.5 L896.5,450.5 L896.5,451.5 L894.5,453.5 L892.5,453.5 L897.5,453.5 L898.5,454.5 L897.5,455.5 L891.5,455.5 L891.5,473.5 L890.5,474.5 L887.5,474.5 L885.5,476.5 L885.5,479.5 L883.5,481.5 L883.5,490.5 L880.5,493.5 L879.5,493.5 L878.5,494.5 L878.5,511.5 L877.5,512.5 L874.5,512.5 L873.5,513.5 L872.5,513.5 L871.5,514.5 L871.5,520.5 L870.5,521.5 L870.5,530.5 L869.5,531.5 L868.5,530.5 L864.5,530.5 L863.5,531.5 L862.5,531.5 L862.5,538.5 L861.5,539.5 L856.5,539.5 L855.5,540.5 L827.5,540.5 L826.5,539.5 L825.5,540.5 L824.5,539.5 L821.5,539.5 L820.5,538.5 L821.5,537.5 L822.5,537.5 L821.5,537.5 L820.5,536.5 L819.5,536.5 L818.5,535.5 L818.5,534.5 L817.5,534.5 L816.5,533.5 L815.5,533.5 L815.5,539.5 L814.5,540.5 L813.5,539.5 L813.5,532.5 L814.5,531.5 L820.5,531.5 L820.5,519.5 L822.5,517.5 L823.5,517.5 L824.5,516.5 L826.5,516.5 L827.5,515.5 L827.5,514.5 L828.5,513.5 L828.5,497.5 L830.5,495.5 L831.5,496.5 L832.5,496.5 L832.5,495.5 L833.5,494.5 L834.5,494.5 L834.5,492.5 L835.5,491.5 L836.5,491.5 L836.5,475.5 L837.5,474.5 L843.5,474.5 L845.5,472.5 L845.5,471.5 L844.5,470.5 L844.5,469.5 L845.5,468.5 L845.5,456.5 L846.5,455.5 L852.5,455.5 L853.5,454.5 Z M499.5,411.5 L497.5,413.5 L497.5,419.5 L496.5,420.5 L488.5,420.5 L488.5,428.5 L487.5,429.5 L478.5,429.5 L478.5,436.5 L477.5,437.5 L476.5,436.5 L475.5,437.5 L470.5,437.5 L470.5,449.5 L469.5,450.5 L469.5,453.5 L468.5,454.5 L464.5,454.5 L463.5,455.5 L462.5,455.5 L461.5,456.5 L461.5,472.5 L460.5,473.5 L459.5,472.5 L460.5,473.5 L459.5,474.5 L458.5,474.5 L455.5,477.5 L455.5,478.5 L454.5,479.5 L454.5,491.5 L458.5,491.5 L459.5,492.5 L460.5,491.5 L461.5,492.5 L461.5,498.5 L462.5,499.5 L462.5,500.5 L469.5,500.5 L470.5,501.5 L470.5,508.5 L497.5,508.5 L498.5,509.5 L534.5,509.5 L535.5,508.5 L536.5,509.5 L536.5,529.5 L535.5,530.5 L530.5,530.5 L529.5,531.5 L528.5,531.5 L528.5,536.5 L527.5,537.5 L528.5,538.5 L527.5,539.5 L522.5,539.5 L521.5,540.5 L519.5,540.5 L518.5,539.5 L517.5,539.5 L516.5,540.5 L434.5,540.5 L434.5,542.5 L433.5,543.5 L433.5,547.5 L432.5,548.5 L429.5,548.5 L427.5,550.5 L427.5,553.5 L425.5,555.5 L425.5,563.5 L424.5,564.5 L420.5,564.5 L419.5,565.5 L418.5,565.5 L418.5,573.5 L548.5,573.5 L548.5,566.5 L549.5,565.5 L560.5,565.5 L561.5,564.5 L561.5,560.5 L562.5,559.5 L562.5,558.5 L563.5,557.5 L569.5,557.5 L570.5,556.5 L570.5,549.5 L571.5,548.5 L576.5,548.5 L578.5,546.5 L578.5,532.5 L579.5,531.5 L580.5,531.5 L581.5,532.5 L582.5,532.5 L582.5,531.5 L585.5,528.5 L584.5,527.5 L584.5,526.5 L585.5,525.5 L585.5,524.5 L586.5,523.5 L586.5,514.5 L587.5,513.5 L587.5,512.5 L588.5,511.5 L589.5,511.5 L591.5,509.5 L592.5,509.5 L592.5,508.5 L593.5,507.5 L594.5,507.5 L594.5,490.5 L589.5,490.5 L587.5,488.5 L588.5,487.5 L587.5,486.5 L587.5,481.5 L581.5,481.5 L580.5,480.5 L580.5,473.5 L530.5,473.5 L529.5,472.5 L523.5,472.5 L522.5,473.5 L515.5,473.5 L514.5,472.5 L513.5,473.5 L512.5,472.5 L512.5,456.5 L513.5,455.5 L519.5,455.5 L520.5,454.5 L520.5,447.5 L521.5,446.5 L522.5,447.5 L522.5,452.5 L522.5,450.5 L523.5,449.5 L524.5,449.5 L525.5,448.5 L525.5,447.5 L526.5,446.5 L610.5,446.5 L610.5,441.5 L611.5,440.5 L611.5,438.5 L612.5,437.5 L617.5,437.5 L617.5,430.5 L619.5,428.5 L619.5,426.5 L620.5,425.5 L621.5,425.5 L621.5,424.5 L624.5,421.5 L625.5,421.5 L626.5,420.5 L626.5,412.5 L614.5,412.5 L613.5,411.5 L599.5,411.5 L598.5,412.5 L590.5,412.5 L589.5,411.5 L563.5,411.5 L562.5,412.5 L546.5,412.5 L545.5,411.5 Z M340.5,411.5 L339.5,412.5 L335.5,412.5 L335.5,419.5 L334.5,420.5 L325.5,420.5 L325.5,428.5 L324.5,429.5 L315.5,429.5 L315.5,436.5 L314.5,437.5 L313.5,436.5 L312.5,436.5 L311.5,437.5 L307.5,437.5 L306.5,438.5 L306.5,453.5 L305.5,454.5 L300.5,454.5 L298.5,456.5 L298.5,472.5 L297.5,473.5 L296.5,473.5 L296.5,474.5 L295.5,475.5 L294.5,475.5 L292.5,477.5 L292.5,478.5 L290.5,480.5 L290.5,490.5 L291.5,491.5 L294.5,491.5 L296.5,493.5 L296.5,494.5 L296.5,492.5 L297.5,491.5 L298.5,492.5 L298.5,499.5 L299.5,500.5 L305.5,500.5 L306.5,501.5 L306.5,508.5 L318.5,508.5 L319.5,509.5 L320.5,509.5 L321.5,508.5 L322.5,509.5 L323.5,509.5 L324.5,508.5 L330.5,508.5 L331.5,509.5 L332.5,509.5 L333.5,508.5 L334.5,509.5 L372.5,509.5 L373.5,510.5 L373.5,514.5 L370.5,517.5 L370.5,520.5 L371.5,521.5 L371.5,520.5 L372.5,519.5 L373.5,520.5 L373.5,529.5 L372.5,530.5 L367.5,530.5 L366.5,531.5 L365.5,531.5 L365.5,536.5 L364.5,537.5 L365.5,538.5 L364.5,539.5 L363.5,539.5 L362.5,538.5 L362.5,537.5 L362.5,538.5 L361.5,539.5 L359.5,539.5 L358.5,540.5 L347.5,540.5 L346.5,539.5 L343.5,539.5 L342.5,540.5 L269.5,540.5 L269.5,547.5 L268.5,548.5 L261.5,548.5 L261.5,549.5 L260.5,550.5 L260.5,563.5 L259.5,564.5 L252.5,564.5 L252.5,573.5 L384.5,573.5 L384.5,570.5 L385.5,569.5 L385.5,568.5 L386.5,567.5 L387.5,568.5 L388.5,567.5 L390.5,567.5 L388.5,567.5 L387.5,566.5 L388.5,565.5 L396.5,565.5 L396.5,558.5 L397.5,557.5 L400.5,557.5 L401.5,556.5 L404.5,556.5 L405.5,557.5 L406.5,556.5 L406.5,549.5 L407.5,548.5 L408.5,549.5 L408.5,551.5 L408.5,549.5 L409.5,548.5 L412.5,548.5 L412.5,547.5 L413.5,546.5 L413.5,540.5 L414.5,539.5 L414.5,538.5 L415.5,537.5 L415.5,533.5 L416.5,532.5 L419.5,532.5 L421.5,530.5 L421.5,525.5 L422.5,524.5 L422.5,514.5 L424.5,512.5 L424.5,511.5 L425.5,510.5 L427.5,510.5 L428.5,509.5 L429.5,509.5 L429.5,508.5 L430.5,507.5 L431.5,507.5 L431.5,491.5 L430.5,490.5 L424.5,490.5 L423.5,489.5 L423.5,483.5 L424.5,482.5 L423.5,481.5 L417.5,481.5 L416.5,480.5 L416.5,473.5 L379.5,473.5 L378.5,472.5 L368.5,472.5 L367.5,473.5 L365.5,473.5 L364.5,472.5 L361.5,472.5 L360.5,473.5 L351.5,473.5 L350.5,472.5 L349.5,473.5 L348.5,472.5 L348.5,456.5 L349.5,455.5 L352.5,455.5 L353.5,454.5 L356.5,454.5 L356.5,452.5 L357.5,451.5 L357.5,447.5 L358.5,446.5 L359.5,447.5 L359.5,448.5 L359.5,447.5 L360.5,446.5 L450.5,446.5 L451.5,445.5 L451.5,438.5 L452.5,437.5 L457.5,437.5 L458.5,436.5 L458.5,435.5 L459.5,434.5 L459.5,422.5 L460.5,421.5 L467.5,421.5 L467.5,412.5 L447.5,412.5 L446.5,411.5 Z M683.5,327.5 L683.5,335.5 L682.5,336.5 L674.5,336.5 L674.5,344.5 L673.5,345.5 L673.5,349.5 L674.5,350.5 L674.5,352.5 L672.5,354.5 L669.5,354.5 L668.5,355.5 L667.5,355.5 L667.5,363.5 L666.5,364.5 L666.5,367.5 L665.5,368.5 L664.5,368.5 L663.5,369.5 L664.5,370.5 L664.5,374.5 L663.5,375.5 L664.5,376.5 L663.5,377.5 L658.5,377.5 L657.5,378.5 L657.5,393.5 L656.5,394.5 L651.5,394.5 L650.5,395.5 L649.5,395.5 L649.5,410.5 L648.5,411.5 L642.5,411.5 L641.5,412.5 L641.5,425.5 L638.5,428.5 L636.5,428.5 L635.5,429.5 L634.5,429.5 L633.5,430.5 L633.5,431.5 L634.5,432.5 L634.5,440.5 L633.5,441.5 L633.5,445.5 L632.5,446.5 L627.5,446.5 L627.5,451.5 L626.5,452.5 L626.5,461.5 L625.5,462.5 L623.5,462.5 L622.5,463.5 L619.5,463.5 L619.5,480.5 L618.5,481.5 L612.5,481.5 L612.5,491.5 L611.5,492.5 L611.5,494.5 L610.5,495.5 L610.5,496.5 L609.5,497.5 L611.5,497.5 L612.5,498.5 L610.5,500.5 L608.5,500.5 L606.5,502.5 L605.5,502.5 L605.5,504.5 L604.5,505.5 L604.5,517.5 L603.5,518.5 L603.5,519.5 L602.5,520.5 L601.5,520.5 L599.5,522.5 L597.5,522.5 L596.5,523.5 L596.5,536.5 L595.5,537.5 L595.5,542.5 L594.5,543.5 L592.5,543.5 L591.5,544.5 L590.5,544.5 L587.5,547.5 L587.5,548.5 L588.5,549.5 L588.5,551.5 L587.5,552.5 L587.5,560.5 L586.5,561.5 L586.5,563.5 L585.5,564.5 L581.5,564.5 L579.5,566.5 L579.5,581.5 L578.5,582.5 L571.5,582.5 L571.5,587.5 L570.5,588.5 L568.5,588.5 L570.5,588.5 L571.5,589.5 L570.5,590.5 L243.5,590.5 L242.5,591.5 L242.5,597.5 L241.5,598.5 L235.5,598.5 L234.5,599.5 L234.5,611.5 L233.5,612.5 L226.5,612.5 L226.5,621.5 L608.5,621.5 L608.5,620.5 L609.5,619.5 L609.5,613.5 L610.5,612.5 L614.5,612.5 L616.5,610.5 L617.5,610.5 L617.5,601.5 L618.5,600.5 L620.5,600.5 L621.5,599.5 L624.5,599.5 L624.5,592.5 L625.5,591.5 L625.5,583.5 L626.5,582.5 L632.5,582.5 L632.5,576.5 L633.5,575.5 L633.5,565.5 L634.5,564.5 L635.5,565.5 L634.5,564.5 L635.5,563.5 L635.5,562.5 L636.5,561.5 L637.5,561.5 L639.5,559.5 L640.5,559.5 L640.5,558.5 L642.5,556.5 L642.5,541.5 L643.5,540.5 L648.5,540.5 L649.5,539.5 L649.5,532.5 L650.5,531.5 L650.5,523.5 L651.5,522.5 L652.5,522.5 L653.5,521.5 L655.5,521.5 L658.5,518.5 L657.5,517.5 L658.5,516.5 L658.5,501.5 L659.5,500.5 L664.5,500.5 L666.5,498.5 L666.5,491.5 L667.5,490.5 L667.5,480.5 L668.5,479.5 L669.5,479.5 L670.5,480.5 L669.5,481.5 L669.5,482.5 L669.5,481.5 L670.5,480.5 L669.5,479.5 L669.5,478.5 L670.5,477.5 L671.5,478.5 L670.5,477.5 L671.5,476.5 L672.5,476.5 L672.5,475.5 L674.5,473.5 L675.5,473.5 L675.5,461.5 L676.5,460.5 L676.5,458.5 L677.5,457.5 L678.5,457.5 L678.5,456.5 L679.5,455.5 L680.5,455.5 L681.5,454.5 L683.5,454.5 L683.5,448.5 L685.5,446.5 L686.5,447.5 L686.5,448.5 L687.5,448.5 L688.5,447.5 L690.5,447.5 L691.5,446.5 L721.5,446.5 L722.5,447.5 L722.5,450.5 L722.5,447.5 L723.5,446.5 L724.5,447.5 L724.5,454.5 L723.5,455.5 L723.5,464.5 L721.5,466.5 L721.5,468.5 L720.5,469.5 L720.5,471.5 L719.5,472.5 L716.5,472.5 L715.5,473.5 L715.5,475.5 L714.5,476.5 L714.5,489.5 L713.5,490.5 L707.5,490.5 L707.5,507.5 L706.5,508.5 L703.5,508.5 L702.5,509.5 L701.5,509.5 L700.5,510.5 L700.5,516.5 L699.5,517.5 L700.5,518.5 L700.5,520.5 L699.5,521.5 L699.5,527.5 L700.5,528.5 L699.5,529.5 L695.5,529.5 L693.5,531.5 L692.5,531.5 L692.5,540.5 L691.5,541.5 L690.5,540.5 L690.5,538.5 L690.5,540.5 L691.5,541.5 L691.5,547.5 L690.5,548.5 L685.5,548.5 L685.5,549.5 L684.5,550.5 L684.5,552.5 L683.5,553.5 L683.5,564.5 L682.5,565.5 L681.5,564.5 L682.5,565.5 L682.5,566.5 L681.5,567.5 L680.5,567.5 L679.5,568.5 L679.5,569.5 L677.5,571.5 L677.5,572.5 L676.5,573.5 L676.5,575.5 L675.5,576.5 L675.5,588.5 L674.5,589.5 L671.5,589.5 L670.5,590.5 L669.5,590.5 L667.5,592.5 L667.5,609.5 L666.5,610.5 L661.5,610.5 L659.5,612.5 L659.5,615.5 L660.5,616.5 L660.5,621.5 L1281.5,621.5 L1281.5,614.5 L1284.5,611.5 L1288.5,611.5 L1289.5,610.5 L1289.5,601.5 L1291.5,599.5 L1292.5,600.5 L1294.5,600.5 L1295.5,599.5 L1297.5,599.5 L1297.5,583.5 L1298.5,582.5 L1304.5,582.5 L1304.5,580.5 L1305.5,579.5 L1305.5,570.5 L1306.5,569.5 L1306.5,568.5 L1305.5,567.5 L1306.5,566.5 L1305.5,565.5 L1306.5,564.5 L1307.5,564.5 L1308.5,565.5 L1307.5,564.5 L1311.5,560.5 L1311.5,559.5 L1312.5,558.5 L1313.5,558.5 L1313.5,545.5 L1314.5,544.5 L1314.5,543.5 L1316.5,541.5 L1317.5,541.5 L1318.5,540.5 L1320.5,540.5 L1321.5,539.5 L1321.5,524.5 L1324.5,521.5 L1325.5,521.5 L1325.5,520.5 L1328.5,517.5 L1328.5,516.5 L1329.5,515.5 L1329.5,506.5 L1330.5,505.5 L1330.5,501.5 L1331.5,500.5 L1333.5,500.5 L1334.5,499.5 L1336.5,499.5 L1336.5,491.5 L1337.5,490.5 L1337.5,480.5 L1338.5,479.5 L1339.5,479.5 L1339.5,478.5 L1340.5,477.5 L1342.5,477.5 L1343.5,476.5 L1344.5,476.5 L1345.5,475.5 L1345.5,461.5 L1346.5,460.5 L1347.5,460.5 L1347.5,459.5 L1348.5,458.5 L1349.5,458.5 L1349.5,457.5 L1350.5,456.5 L1351.5,456.5 L1351.5,455.5 L1352.5,454.5 L1353.5,454.5 L1353.5,447.5 L1354.5,446.5 L1355.5,447.5 L1356.5,446.5 L1394.5,446.5 L1396.5,448.5 L1395.5,449.5 L1396.5,450.5 L1397.5,450.5 L1398.5,451.5 L1398.5,452.5 L1396.5,454.5 L1395.5,454.5 L1396.5,454.5 L1397.5,455.5 L1396.5,456.5 L1394.5,456.5 L1393.5,457.5 L1393.5,462.5 L1392.5,463.5 L1392.5,472.5 L1391.5,473.5 L1391.5,474.5 L1390.5,475.5 L1390.5,481.5 L1387.5,484.5 L1387.5,485.5 L1386.5,486.5 L1385.5,486.5 L1385.5,487.5 L1382.5,490.5 L1382.5,507.5 L1381.5,508.5 L1380.5,508.5 L1379.5,509.5 L1376.5,509.5 L1375.5,510.5 L1375.5,511.5 L1374.5,512.5 L1374.5,523.5 L1371.5,526.5 L1371.5,528.5 L1369.5,530.5 L1367.5,530.5 L1367.5,546.5 L1366.5,547.5 L1363.5,547.5 L1362.5,548.5 L1361.5,548.5 L1360.5,549.5 L1360.5,563.5 L1358.5,565.5 L1357.5,565.5 L1356.5,566.5 L1356.5,571.5 L1355.5,572.5 L1354.5,572.5 L1353.5,573.5 L1352.5,573.5 L1352.5,574.5 L1351.5,575.5 L1351.5,589.5 L1350.5,590.5 L1344.5,590.5 L1344.5,603.5 L1343.5,604.5 L1343.5,607.5 L1344.5,608.5 L1344.5,609.5 L1343.5,610.5 L1340.5,610.5 L1339.5,611.5 L1336.5,611.5 L1336.5,620.5 L1337.5,621.5 L1382.5,621.5 L1382.5,616.5 L1383.5,615.5 L1382.5,614.5 L1383.5,613.5 L1389.5,613.5 L1390.5,612.5 L1391.5,612.5 L1391.5,600.5 L1392.5,599.5 L1393.5,599.5 L1394.5,600.5 L1395.5,599.5 L1398.5,599.5 L1398.5,595.5 L1399.5,594.5 L1399.5,583.5 L1400.5,582.5 L1406.5,582.5 L1406.5,581.5 L1407.5,580.5 L1407.5,565.5 L1408.5,564.5 L1409.5,564.5 L1409.5,563.5 L1410.5,562.5 L1412.5,562.5 L1412.5,561.5 L1414.5,559.5 L1414.5,553.5 L1415.5,552.5 L1415.5,547.5 L1418.5,544.5 L1419.5,544.5 L1422.5,541.5 L1421.5,540.5 L1421.5,539.5 L1422.5,538.5 L1422.5,526.5 L1424.5,524.5 L1427.5,524.5 L1428.5,523.5 L1430.5,523.5 L1430.5,507.5 L1431.5,506.5 L1431.5,505.5 L1432.5,504.5 L1433.5,504.5 L1434.5,503.5 L1436.5,503.5 L1436.5,502.5 L1437.5,501.5 L1438.5,501.5 L1438.5,482.5 L1439.5,481.5 L1441.5,481.5 L1441.5,480.5 L1442.5,479.5 L1443.5,479.5 L1444.5,478.5 L1444.5,477.5 L1445.5,476.5 L1446.5,476.5 L1446.5,468.5 L1447.5,467.5 L1447.5,463.5 L1446.5,462.5 L1446.5,461.5 L1449.5,458.5 L1450.5,459.5 L1451.5,458.5 L1453.5,458.5 L1454.5,457.5 L1454.5,429.5 L1448.5,429.5 L1447.5,428.5 L1447.5,421.5 L1446.5,420.5 L1439.5,420.5 L1438.5,419.5 L1438.5,412.5 L1434.5,412.5 L1433.5,411.5 L1367.5,411.5 L1366.5,410.5 L1367.5,409.5 L1366.5,408.5 L1366.5,407.5 L1367.5,406.5 L1368.5,406.5 L1369.5,407.5 L1369.5,406.5 L1370.5,405.5 L1367.5,405.5 L1366.5,404.5 L1367.5,403.5 L1371.5,403.5 L1372.5,404.5 L1371.5,403.5 L1373.5,401.5 L1373.5,395.5 L1374.5,394.5 L1374.5,383.5 L1375.5,382.5 L1376.5,382.5 L1376.5,381.5 L1377.5,380.5 L1378.5,380.5 L1379.5,379.5 L1380.5,379.5 L1382.5,377.5 L1382.5,366.5 L1383.5,365.5 L1383.5,364.5 L1384.5,363.5 L1384.5,360.5 L1385.5,359.5 L1385.5,358.5 L1386.5,357.5 L1388.5,357.5 L1390.5,355.5 L1390.5,347.5 L1391.5,346.5 L1391.5,343.5 L1390.5,342.5 L1391.5,341.5 L1391.5,339.5 L1390.5,338.5 L1390.5,337.5 L1391.5,336.5 L1398.5,336.5 L1398.5,327.5 L1350.5,327.5 L1350.5,335.5 L1349.5,336.5 L1343.5,336.5 L1341.5,338.5 L1341.5,346.5 L1340.5,347.5 L1340.5,355.5 L1339.5,356.5 L1332.5,356.5 L1332.5,368.5 L1331.5,369.5 L1331.5,377.5 L1330.5,378.5 L1327.5,378.5 L1326.5,379.5 L1326.5,383.5 L1324.5,385.5 L1324.5,394.5 L1323.5,395.5 L1322.5,395.5 L1320.5,397.5 L1319.5,397.5 L1317.5,399.5 L1317.5,400.5 L1316.5,401.5 L1316.5,413.5 L1315.5,414.5 L1315.5,416.5 L1313.5,418.5 L1313.5,419.5 L1312.5,420.5 L1308.5,420.5 L1308.5,436.5 L1307.5,437.5 L1301.5,437.5 L1300.5,438.5 L1300.5,448.5 L1299.5,449.5 L1299.5,451.5 L1298.5,452.5 L1297.5,452.5 L1299.5,452.5 L1300.5,453.5 L1299.5,454.5 L1297.5,454.5 L1296.5,455.5 L1294.5,455.5 L1294.5,457.5 L1293.5,458.5 L1293.5,472.5 L1292.5,473.5 L1290.5,473.5 L1290.5,474.5 L1289.5,475.5 L1289.5,481.5 L1285.5,485.5 L1285.5,487.5 L1286.5,487.5 L1287.5,488.5 L1286.5,489.5 L1282.5,489.5 L1281.5,490.5 L1281.5,506.5 L1280.5,507.5 L1280.5,508.5 L1279.5,509.5 L1276.5,509.5 L1275.5,510.5 L1275.5,511.5 L1273.5,513.5 L1273.5,527.5 L1272.5,528.5 L1269.5,528.5 L1269.5,529.5 L1266.5,532.5 L1266.5,534.5 L1265.5,535.5 L1265.5,544.5 L1263.5,546.5 L1261.5,546.5 L1261.5,547.5 L1259.5,549.5 L1259.5,563.5 L1258.5,564.5 L1252.5,564.5 L1251.5,565.5 L1251.5,581.5 L1250.5,582.5 L1243.5,582.5 L1243.5,589.5 L1242.5,590.5 L728.5,590.5 L727.5,589.5 L728.5,588.5 L733.5,588.5 L732.5,588.5 L731.5,587.5 L731.5,586.5 L730.5,585.5 L730.5,584.5 L726.5,584.5 L726.5,585.5 L725.5,586.5 L724.5,585.5 L724.5,583.5 L725.5,582.5 L731.5,582.5 L731.5,580.5 L732.5,579.5 L732.5,564.5 L735.5,561.5 L736.5,561.5 L736.5,560.5 L737.5,559.5 L738.5,559.5 L738.5,558.5 L739.5,557.5 L740.5,557.5 L740.5,551.5 L741.5,550.5 L741.5,541.5 L742.5,540.5 L747.5,540.5 L748.5,539.5 L748.5,533.5 L749.5,532.5 L749.5,523.5 L750.5,522.5 L751.5,522.5 L752.5,521.5 L754.5,521.5 L754.5,520.5 L756.5,518.5 L756.5,517.5 L758.5,515.5 L758.5,501.5 L759.5,500.5 L761.5,500.5 L764.5,497.5 L765.5,497.5 L765.5,491.5 L766.5,490.5 L766.5,475.5 L768.5,473.5 L769.5,473.5 L770.5,474.5 L771.5,473.5 L774.5,473.5 L774.5,471.5 L775.5,470.5 L775.5,455.5 L777.5,453.5 L778.5,453.5 L779.5,452.5 L779.5,449.5 L781.5,447.5 L781.5,446.5 L783.5,444.5 L783.5,429.5 L776.5,429.5 L775.5,428.5 L775.5,420.5 L768.5,420.5 L767.5,419.5 L767.5,413.5 L766.5,412.5 L760.5,412.5 L759.5,411.5 L750.5,411.5 L749.5,412.5 L740.5,412.5 L739.5,411.5 L700.5,411.5 L699.5,410.5 L699.5,403.5 L698.5,402.5 L699.5,401.5 L700.5,401.5 L701.5,400.5 L702.5,400.5 L703.5,399.5 L704.5,399.5 L704.5,398.5 L706.5,396.5 L706.5,386.5 L707.5,385.5 L708.5,385.5 L708.5,383.5 L709.5,382.5 L709.5,380.5 L710.5,379.5 L710.5,378.5 L711.5,377.5 L714.5,377.5 L715.5,376.5 L715.5,362.5 L716.5,361.5 L716.5,360.5 L717.5,359.5 L719.5,359.5 L719.5,358.5 L720.5,357.5 L721.5,357.5 L723.5,355.5 L723.5,337.5 L724.5,336.5 L731.5,336.5 L731.5,327.5 Z" fill="#f8e8d1" fill-rule="evenodd" opacity="0.18" filter="url(#glowWide)"/>
  <path d="M1171.5,412.5 L1170.5,413.5 L1170.5,419.5 L1169.5,420.5 L1161.5,420.5 L1160.5,421.5 L1160.5,428.5 L1159.5,429.5 L1151.5,429.5 L1151.5,436.5 L1150.5,437.5 L1143.5,437.5 L1142.5,438.5 L1142.5,454.5 L1141.5,455.5 L1135.5,455.5 L1134.5,456.5 L1134.5,473.5 L1133.5,474.5 L1132.5,474.5 L1131.5,475.5 L1130.5,475.5 L1129.5,476.5 L1129.5,477.5 L1128.5,478.5 L1128.5,479.5 L1127.5,480.5 L1127.5,491.5 L1133.5,491.5 L1134.5,492.5 L1134.5,499.5 L1135.5,499.5 L1136.5,500.5 L1141.5,500.5 L1142.5,501.5 L1142.5,508.5 L1208.5,508.5 L1209.5,509.5 L1209.5,530.5 L1208.5,531.5 L1202.5,531.5 L1201.5,532.5 L1201.5,539.5 L1200.5,540.5 L1108.5,540.5 L1108.5,548.5 L1107.5,549.5 L1101.5,549.5 L1100.5,550.5 L1100.5,552.5 L1099.5,553.5 L1099.5,560.5 L1098.5,561.5 L1098.5,564.5 L1097.5,565.5 L1090.5,565.5 L1090.5,572.5 L1091.5,573.5 L1219.5,573.5 L1220.5,572.5 L1220.5,565.5 L1221.5,564.5 L1231.5,564.5 L1231.5,557.5 L1232.5,556.5 L1240.5,556.5 L1240.5,549.5 L1241.5,548.5 L1245.5,548.5 L1247.5,546.5 L1247.5,537.5 L1249.5,535.5 L1249.5,534.5 L1250.5,533.5 L1251.5,533.5 L1255.5,529.5 L1255.5,523.5 L1256.5,522.5 L1256.5,518.5 L1255.5,517.5 L1255.5,515.5 L1257.5,513.5 L1257.5,512.5 L1258.5,511.5 L1259.5,511.5 L1260.5,510.5 L1261.5,510.5 L1264.5,507.5 L1264.5,490.5 L1258.5,490.5 L1257.5,489.5 L1257.5,482.5 L1251.5,482.5 L1249.5,480.5 L1249.5,476.5 L1250.5,475.5 L1250.5,474.5 L1249.5,473.5 L1185.5,473.5 L1184.5,472.5 L1184.5,455.5 L1185.5,454.5 L1192.5,454.5 L1192.5,446.5 L1193.5,445.5 L1194.5,446.5 L1207.5,446.5 L1208.5,445.5 L1281.5,445.5 L1281.5,439.5 L1283.5,437.5 L1288.5,437.5 L1288.5,435.5 L1289.5,434.5 L1289.5,428.5 L1290.5,427.5 L1290.5,425.5 L1291.5,424.5 L1290.5,423.5 L1292.5,421.5 L1293.5,421.5 L1294.5,420.5 L1297.5,420.5 L1297.5,412.5 Z M1005.5,412.5 L1004.5,413.5 L1005.5,414.5 L1005.5,415.5 L1004.5,416.5 L1004.5,420.5 L1003.5,421.5 L991.5,421.5 L991.5,422.5 L990.5,423.5 L990.5,428.5 L989.5,429.5 L982.5,429.5 L981.5,430.5 L981.5,436.5 L980.5,437.5 L973.5,437.5 L973.5,448.5 L971.5,450.5 L971.5,451.5 L968.5,454.5 L967.5,454.5 L966.5,455.5 L965.5,455.5 L965.5,472.5 L964.5,473.5 L957.5,473.5 L957.5,489.5 L955.5,491.5 L954.5,491.5 L952.5,493.5 L951.5,493.5 L951.5,494.5 L949.5,496.5 L949.5,511.5 L948.5,512.5 L946.5,512.5 L945.5,513.5 L941.5,513.5 L941.5,530.5 L938.5,533.5 L937.5,533.5 L937.5,534.5 L935.5,536.5 L935.5,537.5 L933.5,539.5 L933.5,540.5 L932.5,541.5 L932.5,555.5 L933.5,556.5 L939.5,556.5 L940.5,557.5 L940.5,564.5 L948.5,564.5 L949.5,565.5 L949.5,573.5 L1058.5,573.5 L1058.5,566.5 L1060.5,564.5 L1071.5,564.5 L1071.5,557.5 L1072.5,556.5 L1081.5,556.5 L1081.5,549.5 L1082.5,548.5 L1085.5,548.5 L1088.5,545.5 L1088.5,532.5 L1089.5,531.5 L1095.5,531.5 L1095.5,530.5 L1096.5,529.5 L1096.5,527.5 L1097.5,526.5 L1097.5,512.5 L1100.5,509.5 L1101.5,509.5 L1101.5,508.5 L1102.5,507.5 L1103.5,507.5 L1103.5,501.5 L1104.5,500.5 L1104.5,492.5 L1105.5,491.5 L1108.5,491.5 L1109.5,490.5 L1109.5,482.5 L1111.5,480.5 L1111.5,479.5 L1113.5,477.5 L1113.5,476.5 L1116.5,473.5 L1117.5,473.5 L1117.5,461.5 L1118.5,460.5 L1118.5,458.5 L1121.5,455.5 L1122.5,455.5 L1123.5,454.5 L1124.5,454.5 L1124.5,436.5 L1125.5,435.5 L1125.5,429.5 L1118.5,429.5 L1117.5,428.5 L1117.5,421.5 L1110.5,421.5 L1108.5,419.5 L1108.5,414.5 L1109.5,413.5 L1108.5,412.5 Z M1027.5,446.5 L1028.5,445.5 L1038.5,445.5 L1039.5,446.5 L1042.5,446.5 L1043.5,445.5 L1062.5,445.5 L1063.5,446.5 L1070.5,446.5 L1071.5,447.5 L1071.5,455.5 L1069.5,457.5 L1064.5,457.5 L1063.5,458.5 L1063.5,480.5 L1062.5,481.5 L1057.5,481.5 L1056.5,482.5 L1055.5,482.5 L1055.5,486.5 L1054.5,487.5 L1054.5,498.5 L1052.5,500.5 L1051.5,500.5 L1050.5,501.5 L1050.5,507.5 L1049.5,508.5 L1048.5,508.5 L1045.5,511.5 L1045.5,530.5 L1044.5,531.5 L1037.5,531.5 L1037.5,539.5 L1036.5,540.5 L990.5,540.5 L989.5,539.5 L989.5,529.5 L990.5,528.5 L991.5,528.5 L993.5,526.5 L994.5,526.5 L995.5,525.5 L995.5,524.5 L997.5,522.5 L996.5,521.5 L996.5,511.5 L997.5,510.5 L997.5,509.5 L998.5,508.5 L998.5,507.5 L1001.5,504.5 L1003.5,504.5 L1004.5,503.5 L1004.5,492.5 L1008.5,488.5 L1009.5,488.5 L1011.5,486.5 L1011.5,474.5 L1012.5,473.5 L1018.5,473.5 L1018.5,456.5 L1019.5,455.5 L1020.5,455.5 L1021.5,454.5 L1026.5,454.5 L1026.5,452.5 L1027.5,451.5 Z M829.5,412.5 L829.5,419.5 L827.5,421.5 L818.5,421.5 L818.5,428.5 L817.5,429.5 L809.5,429.5 L809.5,436.5 L808.5,437.5 L801.5,437.5 L801.5,440.5 L800.5,441.5 L800.5,448.5 L799.5,449.5 L799.5,451.5 L798.5,452.5 L797.5,452.5 L797.5,453.5 L796.5,454.5 L795.5,454.5 L794.5,455.5 L793.5,455.5 L793.5,472.5 L792.5,473.5 L785.5,473.5 L784.5,474.5 L784.5,490.5 L783.5,491.5 L782.5,491.5 L782.5,492.5 L781.5,493.5 L780.5,493.5 L778.5,495.5 L777.5,495.5 L777.5,496.5 L775.5,498.5 L775.5,512.5 L774.5,513.5 L773.5,512.5 L772.5,512.5 L770.5,514.5 L769.5,514.5 L767.5,516.5 L767.5,532.5 L766.5,533.5 L766.5,534.5 L762.5,538.5 L762.5,539.5 L761.5,540.5 L760.5,540.5 L759.5,541.5 L759.5,556.5 L766.5,556.5 L767.5,557.5 L767.5,564.5 L774.5,564.5 L775.5,565.5 L775.5,570.5 L776.5,571.5 L775.5,572.5 L776.5,573.5 L885.5,573.5 L885.5,565.5 L886.5,564.5 L897.5,564.5 L897.5,558.5 L899.5,556.5 L906.5,556.5 L906.5,550.5 L908.5,548.5 L913.5,548.5 L914.5,547.5 L915.5,547.5 L915.5,532.5 L916.5,531.5 L921.5,531.5 L923.5,529.5 L923.5,513.5 L926.5,510.5 L927.5,510.5 L927.5,509.5 L928.5,508.5 L929.5,508.5 L931.5,506.5 L931.5,499.5 L932.5,498.5 L932.5,495.5 L933.5,494.5 L933.5,490.5 L936.5,487.5 L937.5,487.5 L938.5,486.5 L938.5,484.5 L939.5,483.5 L939.5,479.5 L940.5,478.5 L940.5,474.5 L939.5,473.5 L940.5,472.5 L940.5,471.5 L942.5,469.5 L943.5,469.5 L944.5,468.5 L944.5,467.5 L945.5,466.5 L946.5,466.5 L946.5,464.5 L947.5,463.5 L947.5,455.5 L949.5,453.5 L949.5,452.5 L950.5,451.5 L951.5,451.5 L951.5,449.5 L953.5,447.5 L953.5,446.5 L955.5,444.5 L955.5,429.5 L948.5,429.5 L947.5,428.5 L947.5,421.5 L944.5,421.5 L943.5,420.5 L942.5,420.5 L941.5,421.5 L939.5,419.5 L939.5,412.5 Z M853.5,446.5 L854.5,445.5 L855.5,446.5 L860.5,446.5 L861.5,445.5 L878.5,445.5 L879.5,446.5 L896.5,446.5 L897.5,445.5 L899.5,447.5 L899.5,454.5 L898.5,455.5 L891.5,455.5 L891.5,473.5 L890.5,474.5 L888.5,474.5 L886.5,476.5 L885.5,476.5 L885.5,480.5 L884.5,481.5 L884.5,491.5 L883.5,492.5 L881.5,492.5 L879.5,494.5 L879.5,507.5 L878.5,508.5 L878.5,510.5 L879.5,511.5 L878.5,512.5 L876.5,512.5 L875.5,513.5 L873.5,513.5 L872.5,514.5 L871.5,514.5 L871.5,529.5 L869.5,531.5 L867.5,531.5 L866.5,530.5 L865.5,531.5 L863.5,531.5 L862.5,532.5 L862.5,539.5 L861.5,540.5 L814.5,540.5 L813.5,539.5 L813.5,531.5 L814.5,530.5 L815.5,531.5 L817.5,531.5 L818.5,530.5 L820.5,530.5 L820.5,518.5 L821.5,517.5 L823.5,517.5 L824.5,516.5 L825.5,516.5 L828.5,513.5 L828.5,496.5 L829.5,495.5 L832.5,495.5 L834.5,493.5 L834.5,492.5 L836.5,490.5 L836.5,474.5 L837.5,473.5 L838.5,473.5 L839.5,474.5 L842.5,474.5 L844.5,472.5 L844.5,456.5 L845.5,455.5 L846.5,455.5 L847.5,454.5 L853.5,454.5 Z M498.5,412.5 L498.5,419.5 L496.5,421.5 L495.5,420.5 L492.5,420.5 L491.5,421.5 L488.5,421.5 L488.5,428.5 L487.5,429.5 L479.5,429.5 L479.5,436.5 L478.5,437.5 L470.5,437.5 L470.5,454.5 L469.5,455.5 L462.5,455.5 L462.5,472.5 L459.5,475.5 L458.5,475.5 L455.5,478.5 L455.5,479.5 L454.5,480.5 L454.5,491.5 L461.5,491.5 L462.5,492.5 L462.5,499.5 L463.5,499.5 L464.5,500.5 L469.5,500.5 L470.5,501.5 L470.5,508.5 L536.5,508.5 L537.5,509.5 L537.5,529.5 L535.5,531.5 L529.5,531.5 L528.5,532.5 L528.5,539.5 L527.5,540.5 L434.5,540.5 L434.5,547.5 L432.5,549.5 L428.5,549.5 L428.5,552.5 L426.5,554.5 L426.5,561.5 L425.5,562.5 L425.5,564.5 L424.5,565.5 L418.5,565.5 L418.5,573.5 L547.5,573.5 L547.5,570.5 L548.5,569.5 L548.5,567.5 L547.5,566.5 L549.5,564.5 L561.5,564.5 L561.5,557.5 L562.5,556.5 L569.5,556.5 L569.5,553.5 L570.5,552.5 L570.5,549.5 L571.5,548.5 L575.5,548.5 L577.5,546.5 L577.5,537.5 L578.5,536.5 L578.5,532.5 L579.5,531.5 L582.5,531.5 L584.5,529.5 L584.5,524.5 L585.5,523.5 L585.5,522.5 L586.5,521.5 L586.5,516.5 L585.5,515.5 L586.5,514.5 L586.5,513.5 L587.5,512.5 L587.5,511.5 L588.5,510.5 L589.5,510.5 L590.5,509.5 L591.5,509.5 L594.5,506.5 L594.5,490.5 L588.5,490.5 L587.5,489.5 L587.5,482.5 L580.5,482.5 L579.5,481.5 L579.5,473.5 L512.5,473.5 L511.5,472.5 L511.5,456.5 L513.5,454.5 L519.5,454.5 L519.5,447.5 L521.5,445.5 L522.5,446.5 L528.5,446.5 L529.5,445.5 L610.5,445.5 L610.5,438.5 L611.5,437.5 L616.5,437.5 L617.5,436.5 L617.5,429.5 L618.5,428.5 L619.5,428.5 L619.5,426.5 L621.5,424.5 L621.5,423.5 L622.5,422.5 L623.5,422.5 L623.5,421.5 L624.5,420.5 L626.5,420.5 L626.5,412.5 Z M335.5,412.5 L335.5,419.5 L334.5,420.5 L326.5,420.5 L325.5,421.5 L325.5,428.5 L324.5,429.5 L316.5,429.5 L316.5,435.5 L314.5,437.5 L307.5,437.5 L307.5,453.5 L305.5,455.5 L304.5,454.5 L303.5,455.5 L299.5,455.5 L299.5,472.5 L298.5,473.5 L297.5,473.5 L293.5,477.5 L293.5,478.5 L291.5,480.5 L291.5,491.5 L298.5,491.5 L299.5,492.5 L299.5,499.5 L300.5,499.5 L301.5,500.5 L306.5,500.5 L307.5,501.5 L307.5,508.5 L372.5,508.5 L373.5,509.5 L373.5,522.5 L374.5,523.5 L374.5,529.5 L372.5,531.5 L366.5,531.5 L365.5,532.5 L365.5,539.5 L364.5,540.5 L269.5,540.5 L269.5,548.5 L268.5,549.5 L261.5,549.5 L261.5,563.5 L260.5,564.5 L253.5,564.5 L252.5,565.5 L252.5,573.5 L384.5,573.5 L384.5,566.5 L386.5,564.5 L396.5,564.5 L396.5,557.5 L397.5,556.5 L406.5,556.5 L406.5,549.5 L407.5,548.5 L410.5,548.5 L413.5,545.5 L413.5,539.5 L414.5,538.5 L414.5,532.5 L415.5,531.5 L419.5,531.5 L421.5,529.5 L421.5,524.5 L422.5,523.5 L422.5,513.5 L425.5,510.5 L426.5,510.5 L427.5,509.5 L428.5,509.5 L430.5,507.5 L430.5,490.5 L424.5,490.5 L423.5,489.5 L423.5,482.5 L417.5,482.5 L416.5,481.5 L416.5,473.5 L349.5,473.5 L348.5,472.5 L348.5,455.5 L349.5,454.5 L356.5,454.5 L356.5,447.5 L358.5,445.5 L359.5,446.5 L360.5,445.5 L367.5,445.5 L368.5,446.5 L373.5,446.5 L374.5,445.5 L450.5,445.5 L450.5,443.5 L451.5,442.5 L451.5,438.5 L452.5,437.5 L456.5,437.5 L458.5,435.5 L458.5,430.5 L459.5,429.5 L459.5,421.5 L460.5,420.5 L467.5,420.5 L467.5,412.5 Z M683.5,328.5 L683.5,335.5 L682.5,336.5 L675.5,336.5 L674.5,337.5 L674.5,353.5 L673.5,354.5 L669.5,354.5 L667.5,356.5 L667.5,367.5 L666.5,368.5 L664.5,368.5 L664.5,376.5 L663.5,377.5 L659.5,377.5 L658.5,378.5 L658.5,390.5 L657.5,391.5 L657.5,394.5 L656.5,395.5 L650.5,395.5 L650.5,407.5 L649.5,408.5 L649.5,411.5 L648.5,412.5 L642.5,412.5 L642.5,425.5 L641.5,426.5 L640.5,426.5 L640.5,427.5 L639.5,428.5 L637.5,428.5 L635.5,430.5 L634.5,430.5 L634.5,445.5 L633.5,446.5 L628.5,446.5 L627.5,447.5 L627.5,461.5 L626.5,462.5 L624.5,462.5 L623.5,463.5 L620.5,463.5 L620.5,479.5 L618.5,481.5 L613.5,481.5 L612.5,482.5 L612.5,499.5 L611.5,500.5 L609.5,500.5 L607.5,502.5 L605.5,502.5 L605.5,505.5 L604.5,506.5 L604.5,518.5 L602.5,520.5 L601.5,520.5 L599.5,522.5 L598.5,522.5 L597.5,523.5 L597.5,533.5 L596.5,534.5 L596.5,542.5 L594.5,544.5 L593.5,543.5 L592.5,544.5 L591.5,544.5 L590.5,545.5 L589.5,545.5 L588.5,546.5 L588.5,560.5 L587.5,561.5 L587.5,563.5 L585.5,565.5 L584.5,565.5 L583.5,564.5 L582.5,565.5 L580.5,565.5 L580.5,581.5 L579.5,582.5 L572.5,582.5 L571.5,583.5 L571.5,589.5 L570.5,590.5 L243.5,590.5 L243.5,597.5 L241.5,599.5 L234.5,599.5 L234.5,612.5 L233.5,613.5 L232.5,612.5 L227.5,612.5 L226.5,613.5 L226.5,620.5 L608.5,620.5 L608.5,613.5 L610.5,611.5 L615.5,611.5 L616.5,610.5 L617.5,610.5 L617.5,600.5 L618.5,599.5 L621.5,599.5 L622.5,598.5 L623.5,599.5 L624.5,598.5 L624.5,583.5 L625.5,582.5 L631.5,582.5 L632.5,581.5 L632.5,575.5 L633.5,574.5 L633.5,564.5 L638.5,559.5 L639.5,559.5 L641.5,557.5 L641.5,545.5 L642.5,544.5 L642.5,542.5 L641.5,541.5 L643.5,539.5 L649.5,539.5 L649.5,528.5 L650.5,527.5 L650.5,525.5 L649.5,524.5 L649.5,523.5 L650.5,522.5 L652.5,522.5 L653.5,521.5 L655.5,521.5 L655.5,520.5 L656.5,519.5 L657.5,519.5 L657.5,516.5 L658.5,515.5 L658.5,500.5 L659.5,499.5 L661.5,499.5 L662.5,500.5 L663.5,500.5 L664.5,499.5 L665.5,499.5 L665.5,492.5 L666.5,491.5 L666.5,480.5 L671.5,475.5 L672.5,475.5 L674.5,473.5 L674.5,461.5 L676.5,459.5 L676.5,458.5 L680.5,454.5 L682.5,454.5 L683.5,453.5 L683.5,447.5 L685.5,445.5 L686.5,446.5 L690.5,446.5 L691.5,445.5 L715.5,445.5 L716.5,446.5 L722.5,446.5 L723.5,445.5 L725.5,447.5 L725.5,454.5 L723.5,456.5 L723.5,465.5 L721.5,467.5 L721.5,471.5 L720.5,472.5 L719.5,472.5 L718.5,473.5 L715.5,473.5 L715.5,489.5 L714.5,490.5 L708.5,490.5 L707.5,491.5 L707.5,508.5 L706.5,509.5 L701.5,509.5 L700.5,510.5 L700.5,528.5 L699.5,529.5 L696.5,529.5 L694.5,531.5 L693.5,531.5 L693.5,534.5 L692.5,535.5 L692.5,541.5 L691.5,542.5 L691.5,545.5 L692.5,546.5 L692.5,547.5 L691.5,548.5 L686.5,548.5 L685.5,549.5 L685.5,550.5 L684.5,551.5 L684.5,564.5 L682.5,566.5 L682.5,567.5 L681.5,568.5 L680.5,568.5 L680.5,569.5 L679.5,570.5 L678.5,570.5 L678.5,571.5 L676.5,573.5 L676.5,587.5 L674.5,589.5 L672.5,589.5 L671.5,590.5 L669.5,590.5 L667.5,592.5 L667.5,610.5 L666.5,611.5 L660.5,611.5 L660.5,620.5 L1281.5,620.5 L1281.5,613.5 L1282.5,612.5 L1283.5,612.5 L1284.5,611.5 L1287.5,611.5 L1289.5,609.5 L1289.5,600.5 L1290.5,599.5 L1296.5,599.5 L1296.5,596.5 L1297.5,595.5 L1297.5,585.5 L1296.5,584.5 L1298.5,582.5 L1304.5,582.5 L1304.5,573.5 L1305.5,572.5 L1305.5,565.5 L1313.5,557.5 L1313.5,544.5 L1314.5,543.5 L1314.5,542.5 L1315.5,541.5 L1316.5,541.5 L1317.5,540.5 L1318.5,540.5 L1319.5,539.5 L1320.5,539.5 L1320.5,534.5 L1321.5,533.5 L1321.5,523.5 L1324.5,520.5 L1325.5,520.5 L1325.5,519.5 L1326.5,518.5 L1327.5,518.5 L1327.5,517.5 L1329.5,515.5 L1329.5,504.5 L1330.5,503.5 L1330.5,501.5 L1331.5,500.5 L1333.5,500.5 L1334.5,499.5 L1336.5,499.5 L1336.5,490.5 L1337.5,489.5 L1337.5,480.5 L1340.5,477.5 L1341.5,477.5 L1343.5,475.5 L1344.5,475.5 L1345.5,474.5 L1344.5,473.5 L1345.5,472.5 L1345.5,460.5 L1348.5,457.5 L1349.5,457.5 L1352.5,454.5 L1352.5,447.5 L1354.5,445.5 L1391.5,445.5 L1392.5,446.5 L1398.5,446.5 L1399.5,447.5 L1399.5,455.5 L1398.5,456.5 L1397.5,456.5 L1396.5,457.5 L1394.5,457.5 L1394.5,459.5 L1393.5,460.5 L1393.5,472.5 L1391.5,474.5 L1391.5,481.5 L1385.5,487.5 L1385.5,488.5 L1383.5,490.5 L1383.5,507.5 L1381.5,509.5 L1376.5,509.5 L1376.5,510.5 L1375.5,511.5 L1375.5,523.5 L1374.5,524.5 L1373.5,524.5 L1373.5,525.5 L1372.5,526.5 L1372.5,527.5 L1371.5,528.5 L1371.5,529.5 L1370.5,530.5 L1368.5,530.5 L1367.5,531.5 L1367.5,547.5 L1366.5,548.5 L1365.5,548.5 L1364.5,547.5 L1363.5,548.5 L1362.5,548.5 L1361.5,549.5 L1361.5,559.5 L1360.5,560.5 L1360.5,564.5 L1359.5,565.5 L1358.5,565.5 L1357.5,566.5 L1356.5,566.5 L1356.5,567.5 L1357.5,568.5 L1357.5,571.5 L1355.5,573.5 L1353.5,573.5 L1352.5,574.5 L1352.5,589.5 L1351.5,590.5 L1345.5,590.5 L1344.5,591.5 L1344.5,609.5 L1343.5,610.5 L1342.5,610.5 L1341.5,611.5 L1337.5,611.5 L1337.5,620.5 L1382.5,620.5 L1382.5,614.5 L1384.5,612.5 L1385.5,613.5 L1387.5,613.5 L1388.5,612.5 L1390.5,612.5 L1390.5,601.5 L1392.5,599.5 L1396.5,599.5 L1397.5,598.5 L1398.5,598.5 L1398.5,583.5 L1399.5,582.5 L1406.5,582.5 L1406.5,579.5 L1407.5,578.5 L1406.5,577.5 L1406.5,574.5 L1407.5,573.5 L1407.5,565.5 L1411.5,561.5 L1412.5,561.5 L1412.5,560.5 L1413.5,559.5 L1414.5,559.5 L1414.5,547.5 L1416.5,545.5 L1417.5,545.5 L1418.5,544.5 L1419.5,544.5 L1421.5,542.5 L1421.5,526.5 L1422.5,525.5 L1423.5,525.5 L1424.5,524.5 L1426.5,524.5 L1427.5,523.5 L1429.5,523.5 L1429.5,513.5 L1430.5,512.5 L1430.5,505.5 L1431.5,504.5 L1432.5,504.5 L1434.5,502.5 L1436.5,502.5 L1437.5,501.5 L1437.5,489.5 L1438.5,488.5 L1438.5,482.5 L1439.5,481.5 L1440.5,481.5 L1443.5,478.5 L1444.5,478.5 L1444.5,477.5 L1445.5,476.5 L1446.5,476.5 L1446.5,461.5 L1449.5,458.5 L1451.5,458.5 L1452.5,457.5 L1453.5,457.5 L1454.5,456.5 L1454.5,429.5 L1447.5,429.5 L1446.5,428.5 L1446.5,420.5 L1439.5,420.5 L1438.5,419.5 L1438.5,413.5 L1437.5,412.5 L1367.5,412.5 L1366.5,411.5 L1366.5,404.5 L1367.5,403.5 L1369.5,403.5 L1370.5,402.5 L1371.5,402.5 L1373.5,400.5 L1373.5,394.5 L1374.5,393.5 L1374.5,382.5 L1375.5,381.5 L1376.5,381.5 L1376.5,380.5 L1377.5,379.5 L1379.5,379.5 L1381.5,377.5 L1382.5,377.5 L1382.5,364.5 L1384.5,362.5 L1383.5,361.5 L1384.5,360.5 L1384.5,359.5 L1387.5,356.5 L1389.5,356.5 L1389.5,355.5 L1390.5,354.5 L1390.5,346.5 L1391.5,345.5 L1390.5,344.5 L1390.5,337.5 L1391.5,336.5 L1398.5,336.5 L1398.5,328.5 L1350.5,328.5 L1350.5,335.5 L1349.5,336.5 L1344.5,336.5 L1343.5,337.5 L1342.5,337.5 L1341.5,338.5 L1341.5,346.5 L1340.5,347.5 L1340.5,348.5 L1341.5,349.5 L1340.5,350.5 L1341.5,351.5 L1341.5,355.5 L1340.5,356.5 L1333.5,356.5 L1332.5,357.5 L1332.5,369.5 L1331.5,370.5 L1331.5,377.5 L1330.5,378.5 L1327.5,378.5 L1327.5,381.5 L1326.5,382.5 L1326.5,383.5 L1324.5,385.5 L1324.5,394.5 L1322.5,396.5 L1321.5,396.5 L1321.5,397.5 L1320.5,398.5 L1318.5,398.5 L1318.5,399.5 L1317.5,400.5 L1317.5,413.5 L1315.5,415.5 L1315.5,416.5 L1313.5,418.5 L1313.5,419.5 L1311.5,421.5 L1310.5,420.5 L1309.5,420.5 L1308.5,421.5 L1308.5,437.5 L1307.5,438.5 L1300.5,438.5 L1300.5,454.5 L1299.5,455.5 L1295.5,455.5 L1294.5,456.5 L1294.5,458.5 L1293.5,459.5 L1293.5,472.5 L1292.5,473.5 L1290.5,473.5 L1290.5,475.5 L1289.5,476.5 L1289.5,481.5 L1288.5,482.5 L1288.5,489.5 L1287.5,490.5 L1281.5,490.5 L1281.5,507.5 L1279.5,509.5 L1277.5,509.5 L1275.5,511.5 L1275.5,512.5 L1274.5,513.5 L1274.5,526.5 L1272.5,528.5 L1270.5,528.5 L1266.5,532.5 L1266.5,543.5 L1263.5,546.5 L1262.5,546.5 L1259.5,549.5 L1259.5,550.5 L1260.5,551.5 L1259.5,552.5 L1259.5,563.5 L1257.5,565.5 L1252.5,565.5 L1252.5,581.5 L1251.5,582.5 L1244.5,582.5 L1243.5,583.5 L1243.5,589.5 L1242.5,590.5 L725.5,590.5 L724.5,589.5 L724.5,583.5 L725.5,582.5 L730.5,582.5 L731.5,581.5 L731.5,579.5 L732.5,578.5 L732.5,564.5 L733.5,563.5 L733.5,562.5 L734.5,561.5 L735.5,561.5 L735.5,560.5 L736.5,559.5 L737.5,559.5 L740.5,556.5 L740.5,541.5 L742.5,539.5 L747.5,539.5 L748.5,538.5 L748.5,525.5 L749.5,524.5 L749.5,523.5 L750.5,522.5 L751.5,522.5 L751.5,521.5 L752.5,520.5 L753.5,520.5 L755.5,518.5 L755.5,517.5 L757.5,515.5 L757.5,501.5 L759.5,499.5 L761.5,499.5 L763.5,497.5 L764.5,497.5 L764.5,495.5 L765.5,494.5 L765.5,491.5 L766.5,490.5 L766.5,475.5 L768.5,473.5 L771.5,473.5 L772.5,472.5 L774.5,472.5 L774.5,470.5 L775.5,469.5 L775.5,454.5 L776.5,453.5 L777.5,453.5 L779.5,451.5 L779.5,448.5 L780.5,447.5 L781.5,447.5 L781.5,445.5 L782.5,444.5 L782.5,429.5 L776.5,429.5 L775.5,428.5 L775.5,421.5 L768.5,421.5 L766.5,419.5 L766.5,412.5 L699.5,412.5 L698.5,411.5 L698.5,402.5 L700.5,400.5 L701.5,400.5 L702.5,399.5 L703.5,399.5 L704.5,398.5 L704.5,397.5 L706.5,395.5 L705.5,394.5 L705.5,391.5 L706.5,390.5 L706.5,385.5 L707.5,384.5 L707.5,383.5 L709.5,381.5 L709.5,378.5 L710.5,377.5 L712.5,377.5 L713.5,376.5 L714.5,376.5 L714.5,363.5 L716.5,361.5 L716.5,360.5 L718.5,358.5 L719.5,358.5 L720.5,357.5 L721.5,357.5 L722.5,356.5 L722.5,347.5 L723.5,346.5 L723.5,345.5 L722.5,344.5 L722.5,337.5 L723.5,336.5 L730.5,336.5 L731.5,335.5 L730.5,334.5 L731.5,333.5 L731.5,328.5 Z" fill="#f8e8d1" fill-rule="evenodd" opacity="0.24" filter="url(#glowTight)"/>

  <!-- main vector wordmark -->
  <path d="M1171.5,412.5 L1171.5,419.5 L1169.5,421.5 L1161.5,421.5 L1161.5,428.5 L1159.5,430.5 L1155.5,430.5 L1154.5,429.5 L1152.5,429.5 L1151.5,430.5 L1151.5,436.5 L1150.5,437.5 L1144.5,437.5 L1143.5,438.5 L1143.5,453.5 L1141.5,455.5 L1136.5,455.5 L1135.5,456.5 L1135.5,473.5 L1134.5,474.5 L1132.5,474.5 L1129.5,477.5 L1129.5,478.5 L1128.5,479.5 L1128.5,480.5 L1127.5,481.5 L1127.5,490.5 L1133.5,490.5 L1135.5,492.5 L1135.5,499.5 L1141.5,499.5 L1143.5,501.5 L1143.5,508.5 L1209.5,508.5 L1210.5,509.5 L1210.5,530.5 L1208.5,532.5 L1203.5,532.5 L1202.5,531.5 L1202.5,539.5 L1201.5,540.5 L1124.5,540.5 L1123.5,541.5 L1110.5,541.5 L1109.5,540.5 L1108.5,541.5 L1108.5,548.5 L1107.5,549.5 L1101.5,549.5 L1101.5,551.5 L1100.5,552.5 L1100.5,557.5 L1099.5,558.5 L1100.5,559.5 L1099.5,560.5 L1099.5,563.5 L1097.5,565.5 L1091.5,565.5 L1091.5,573.5 L1219.5,573.5 L1219.5,565.5 L1220.5,564.5 L1230.5,564.5 L1230.5,557.5 L1231.5,556.5 L1239.5,556.5 L1239.5,550.5 L1241.5,548.5 L1245.5,548.5 L1245.5,547.5 L1247.5,545.5 L1247.5,537.5 L1248.5,536.5 L1248.5,535.5 L1249.5,534.5 L1249.5,533.5 L1250.5,532.5 L1252.5,532.5 L1252.5,531.5 L1255.5,528.5 L1255.5,514.5 L1256.5,513.5 L1257.5,513.5 L1257.5,512.5 L1260.5,509.5 L1262.5,509.5 L1264.5,507.5 L1264.5,491.5 L1258.5,491.5 L1256.5,489.5 L1256.5,482.5 L1250.5,482.5 L1249.5,481.5 L1249.5,473.5 L1248.5,474.5 L1207.5,474.5 L1206.5,473.5 L1204.5,473.5 L1203.5,474.5 L1185.5,474.5 L1183.5,472.5 L1183.5,456.5 L1185.5,454.5 L1191.5,454.5 L1191.5,449.5 L1192.5,448.5 L1192.5,446.5 L1193.5,445.5 L1281.5,445.5 L1281.5,438.5 L1283.5,436.5 L1288.5,436.5 L1288.5,434.5 L1289.5,433.5 L1289.5,427.5 L1290.5,426.5 L1290.5,422.5 L1291.5,421.5 L1292.5,421.5 L1293.5,420.5 L1296.5,420.5 L1297.5,419.5 L1297.5,413.5 L1296.5,412.5 Z M1005.5,412.5 L1005.5,420.5 L1004.5,421.5 L991.5,421.5 L991.5,428.5 L990.5,429.5 L989.5,429.5 L988.5,430.5 L982.5,430.5 L982.5,436.5 L981.5,437.5 L974.5,437.5 L973.5,438.5 L973.5,448.5 L972.5,449.5 L972.5,450.5 L969.5,453.5 L969.5,454.5 L968.5,455.5 L966.5,455.5 L966.5,465.5 L965.5,466.5 L965.5,472.5 L963.5,474.5 L957.5,474.5 L957.5,490.5 L956.5,491.5 L954.5,491.5 L951.5,494.5 L951.5,495.5 L949.5,497.5 L949.5,498.5 L950.5,499.5 L950.5,506.5 L949.5,507.5 L949.5,512.5 L948.5,513.5 L944.5,513.5 L943.5,514.5 L941.5,514.5 L941.5,531.5 L940.5,532.5 L939.5,532.5 L937.5,534.5 L937.5,535.5 L935.5,537.5 L935.5,538.5 L933.5,540.5 L933.5,544.5 L932.5,545.5 L932.5,546.5 L933.5,547.5 L933.5,551.5 L932.5,552.5 L932.5,554.5 L933.5,555.5 L933.5,556.5 L940.5,556.5 L941.5,557.5 L941.5,564.5 L948.5,564.5 L949.5,565.5 L949.5,572.5 L950.5,573.5 L1057.5,573.5 L1058.5,572.5 L1058.5,565.5 L1059.5,564.5 L1071.5,564.5 L1071.5,557.5 L1072.5,556.5 L1080.5,556.5 L1080.5,549.5 L1082.5,547.5 L1086.5,547.5 L1088.5,545.5 L1088.5,531.5 L1089.5,530.5 L1095.5,530.5 L1095.5,528.5 L1096.5,527.5 L1096.5,513.5 L1098.5,511.5 L1098.5,510.5 L1100.5,508.5 L1101.5,508.5 L1103.5,506.5 L1103.5,493.5 L1105.5,491.5 L1106.5,491.5 L1107.5,490.5 L1108.5,490.5 L1108.5,482.5 L1112.5,478.5 L1112.5,476.5 L1113.5,475.5 L1114.5,475.5 L1114.5,474.5 L1115.5,473.5 L1116.5,473.5 L1116.5,463.5 L1117.5,462.5 L1117.5,460.5 L1118.5,459.5 L1118.5,458.5 L1119.5,457.5 L1119.5,456.5 L1120.5,455.5 L1121.5,455.5 L1123.5,453.5 L1124.5,453.5 L1124.5,429.5 L1123.5,430.5 L1118.5,430.5 L1116.5,428.5 L1116.5,422.5 L1117.5,421.5 L1109.5,421.5 L1108.5,420.5 L1108.5,412.5 Z M1026.5,446.5 L1027.5,445.5 L1070.5,445.5 L1072.5,447.5 L1072.5,455.5 L1070.5,457.5 L1069.5,457.5 L1068.5,458.5 L1064.5,458.5 L1064.5,480.5 L1062.5,482.5 L1055.5,482.5 L1055.5,498.5 L1053.5,500.5 L1052.5,500.5 L1051.5,501.5 L1051.5,507.5 L1050.5,508.5 L1049.5,508.5 L1046.5,511.5 L1046.5,530.5 L1045.5,531.5 L1038.5,531.5 L1037.5,532.5 L1037.5,539.5 L1036.5,540.5 L998.5,540.5 L997.5,541.5 L995.5,541.5 L994.5,540.5 L991.5,540.5 L990.5,541.5 L988.5,539.5 L988.5,530.5 L990.5,528.5 L991.5,528.5 L991.5,527.5 L992.5,526.5 L993.5,526.5 L996.5,523.5 L996.5,509.5 L997.5,508.5 L997.5,507.5 L999.5,505.5 L1000.5,505.5 L1001.5,504.5 L1003.5,504.5 L1003.5,492.5 L1005.5,490.5 L1006.5,490.5 L1006.5,489.5 L1007.5,488.5 L1009.5,488.5 L1009.5,487.5 L1010.5,486.5 L1010.5,484.5 L1011.5,483.5 L1011.5,474.5 L1012.5,473.5 L1013.5,473.5 L1014.5,472.5 L1018.5,472.5 L1018.5,456.5 L1020.5,454.5 L1021.5,454.5 L1022.5,453.5 L1023.5,454.5 L1024.5,454.5 L1025.5,453.5 L1026.5,454.5 Z M829.5,412.5 L829.5,420.5 L828.5,421.5 L819.5,421.5 L819.5,427.5 L817.5,429.5 L810.5,429.5 L809.5,430.5 L809.5,436.5 L808.5,437.5 L801.5,437.5 L801.5,448.5 L800.5,449.5 L799.5,449.5 L799.5,452.5 L798.5,453.5 L797.5,453.5 L797.5,454.5 L796.5,455.5 L794.5,455.5 L793.5,456.5 L793.5,472.5 L791.5,474.5 L785.5,474.5 L785.5,485.5 L784.5,486.5 L784.5,490.5 L781.5,493.5 L780.5,493.5 L780.5,494.5 L779.5,495.5 L778.5,495.5 L776.5,497.5 L776.5,512.5 L775.5,513.5 L772.5,513.5 L770.5,515.5 L769.5,515.5 L768.5,516.5 L768.5,531.5 L766.5,533.5 L766.5,535.5 L761.5,540.5 L760.5,540.5 L760.5,548.5 L759.5,549.5 L759.5,553.5 L760.5,554.5 L759.5,555.5 L760.5,556.5 L766.5,556.5 L768.5,558.5 L768.5,564.5 L775.5,564.5 L776.5,565.5 L776.5,573.5 L882.5,573.5 L883.5,572.5 L885.5,572.5 L885.5,565.5 L886.5,564.5 L897.5,564.5 L897.5,557.5 L898.5,556.5 L906.5,556.5 L906.5,548.5 L907.5,547.5 L914.5,547.5 L914.5,537.5 L915.5,536.5 L915.5,532.5 L917.5,530.5 L921.5,530.5 L922.5,529.5 L922.5,523.5 L923.5,522.5 L923.5,513.5 L924.5,512.5 L924.5,511.5 L925.5,510.5 L926.5,510.5 L928.5,508.5 L929.5,508.5 L929.5,507.5 L931.5,505.5 L931.5,496.5 L932.5,495.5 L932.5,490.5 L933.5,489.5 L934.5,489.5 L934.5,488.5 L935.5,487.5 L936.5,487.5 L938.5,485.5 L938.5,483.5 L939.5,482.5 L939.5,472.5 L945.5,466.5 L945.5,465.5 L947.5,463.5 L947.5,454.5 L950.5,451.5 L950.5,450.5 L953.5,447.5 L953.5,445.5 L954.5,444.5 L955.5,444.5 L955.5,430.5 L954.5,429.5 L953.5,430.5 L952.5,430.5 L951.5,429.5 L950.5,430.5 L949.5,430.5 L947.5,428.5 L947.5,421.5 L940.5,421.5 L938.5,419.5 L939.5,418.5 L939.5,415.5 L938.5,414.5 L939.5,413.5 L938.5,412.5 Z M854.5,445.5 L898.5,445.5 L899.5,446.5 L899.5,455.5 L898.5,456.5 L891.5,456.5 L891.5,474.5 L890.5,475.5 L888.5,475.5 L887.5,476.5 L886.5,476.5 L886.5,477.5 L885.5,478.5 L885.5,480.5 L884.5,481.5 L884.5,491.5 L883.5,492.5 L882.5,492.5 L880.5,494.5 L879.5,494.5 L879.5,512.5 L878.5,513.5 L874.5,513.5 L873.5,514.5 L872.5,514.5 L871.5,515.5 L872.5,516.5 L872.5,519.5 L871.5,520.5 L871.5,530.5 L869.5,532.5 L868.5,531.5 L863.5,531.5 L863.5,539.5 L862.5,540.5 L813.5,540.5 L812.5,539.5 L812.5,532.5 L814.5,530.5 L819.5,530.5 L819.5,519.5 L821.5,517.5 L822.5,517.5 L824.5,515.5 L826.5,515.5 L826.5,514.5 L827.5,513.5 L827.5,497.5 L829.5,495.5 L831.5,495.5 L834.5,492.5 L834.5,491.5 L835.5,490.5 L835.5,475.5 L837.5,473.5 L843.5,473.5 L844.5,472.5 L844.5,455.5 L845.5,454.5 L852.5,454.5 L852.5,447.5 Z M499.5,412.5 L498.5,413.5 L498.5,420.5 L497.5,421.5 L488.5,421.5 L488.5,429.5 L487.5,430.5 L481.5,430.5 L480.5,429.5 L479.5,430.5 L479.5,436.5 L478.5,437.5 L471.5,437.5 L470.5,438.5 L470.5,454.5 L469.5,455.5 L463.5,455.5 L462.5,456.5 L462.5,473.5 L461.5,474.5 L460.5,474.5 L459.5,475.5 L458.5,475.5 L458.5,476.5 L457.5,477.5 L456.5,477.5 L456.5,478.5 L454.5,480.5 L455.5,481.5 L455.5,486.5 L454.5,487.5 L454.5,490.5 L461.5,490.5 L462.5,491.5 L462.5,499.5 L469.5,499.5 L471.5,501.5 L471.5,508.5 L531.5,508.5 L532.5,507.5 L533.5,508.5 L536.5,508.5 L537.5,509.5 L537.5,530.5 L535.5,532.5 L529.5,532.5 L529.5,539.5 L528.5,540.5 L435.5,540.5 L434.5,541.5 L434.5,548.5 L433.5,549.5 L429.5,549.5 L428.5,550.5 L428.5,553.5 L426.5,555.5 L426.5,562.5 L425.5,563.5 L425.5,564.5 L424.5,565.5 L419.5,565.5 L418.5,566.5 L418.5,572.5 L419.5,573.5 L543.5,573.5 L544.5,572.5 L545.5,572.5 L546.5,573.5 L547.5,572.5 L547.5,565.5 L548.5,564.5 L560.5,564.5 L560.5,560.5 L561.5,559.5 L561.5,557.5 L562.5,556.5 L569.5,556.5 L569.5,549.5 L571.5,547.5 L575.5,547.5 L576.5,546.5 L577.5,546.5 L577.5,532.5 L579.5,530.5 L580.5,530.5 L581.5,531.5 L584.5,528.5 L584.5,523.5 L585.5,522.5 L585.5,514.5 L586.5,513.5 L586.5,512.5 L588.5,510.5 L589.5,510.5 L589.5,509.5 L590.5,508.5 L592.5,508.5 L592.5,507.5 L593.5,506.5 L593.5,492.5 L594.5,491.5 L588.5,491.5 L587.5,490.5 L587.5,482.5 L580.5,482.5 L579.5,481.5 L579.5,474.5 L578.5,473.5 L577.5,474.5 L513.5,474.5 L511.5,472.5 L511.5,455.5 L512.5,454.5 L519.5,454.5 L519.5,446.5 L520.5,445.5 L610.5,445.5 L610.5,437.5 L611.5,436.5 L617.5,436.5 L617.5,429.5 L618.5,428.5 L618.5,427.5 L620.5,425.5 L620.5,424.5 L624.5,420.5 L625.5,420.5 L626.5,419.5 L626.5,418.5 L625.5,417.5 L625.5,412.5 Z M336.5,412.5 L336.5,419.5 L334.5,421.5 L326.5,421.5 L326.5,428.5 L324.5,430.5 L322.5,430.5 L321.5,429.5 L316.5,429.5 L316.5,436.5 L315.5,437.5 L307.5,437.5 L307.5,454.5 L306.5,455.5 L300.5,455.5 L299.5,456.5 L299.5,473.5 L298.5,474.5 L297.5,474.5 L295.5,476.5 L294.5,476.5 L293.5,477.5 L293.5,478.5 L291.5,480.5 L291.5,490.5 L294.5,490.5 L295.5,491.5 L296.5,490.5 L297.5,490.5 L299.5,492.5 L299.5,499.5 L306.5,499.5 L307.5,500.5 L307.5,507.5 L308.5,508.5 L370.5,508.5 L371.5,507.5 L372.5,507.5 L374.5,509.5 L374.5,530.5 L372.5,532.5 L367.5,532.5 L366.5,531.5 L366.5,539.5 L365.5,540.5 L270.5,540.5 L269.5,541.5 L269.5,548.5 L268.5,549.5 L261.5,549.5 L261.5,564.5 L260.5,565.5 L252.5,565.5 L253.5,566.5 L253.5,573.5 L383.5,573.5 L384.5,572.5 L384.5,565.5 L385.5,564.5 L396.5,564.5 L396.5,557.5 L397.5,556.5 L405.5,556.5 L405.5,549.5 L407.5,547.5 L410.5,547.5 L411.5,546.5 L412.5,546.5 L413.5,545.5 L413.5,538.5 L414.5,537.5 L414.5,531.5 L415.5,530.5 L416.5,530.5 L417.5,531.5 L418.5,530.5 L420.5,530.5 L420.5,526.5 L421.5,525.5 L421.5,524.5 L422.5,523.5 L422.5,513.5 L427.5,508.5 L429.5,508.5 L429.5,507.5 L430.5,506.5 L430.5,491.5 L424.5,491.5 L423.5,490.5 L423.5,482.5 L416.5,482.5 L415.5,481.5 L415.5,474.5 L349.5,474.5 L347.5,472.5 L347.5,456.5 L349.5,454.5 L355.5,454.5 L356.5,453.5 L356.5,446.5 L357.5,445.5 L450.5,445.5 L450.5,438.5 L452.5,436.5 L457.5,436.5 L458.5,435.5 L458.5,427.5 L459.5,426.5 L458.5,425.5 L459.5,424.5 L458.5,423.5 L458.5,422.5 L460.5,420.5 L467.5,420.5 L467.5,412.5 Z M683.5,328.5 L683.5,336.5 L682.5,337.5 L674.5,337.5 L674.5,354.5 L673.5,355.5 L668.5,355.5 L667.5,356.5 L667.5,367.5 L666.5,368.5 L665.5,368.5 L664.5,369.5 L664.5,377.5 L663.5,378.5 L658.5,378.5 L658.5,394.5 L657.5,395.5 L650.5,395.5 L650.5,411.5 L649.5,412.5 L642.5,412.5 L642.5,425.5 L639.5,428.5 L638.5,428.5 L636.5,430.5 L634.5,430.5 L634.5,446.5 L633.5,447.5 L627.5,447.5 L627.5,462.5 L626.5,463.5 L622.5,463.5 L621.5,464.5 L620.5,464.5 L620.5,481.5 L619.5,482.5 L613.5,482.5 L613.5,491.5 L612.5,492.5 L612.5,500.5 L611.5,501.5 L608.5,501.5 L607.5,502.5 L606.5,502.5 L606.5,504.5 L605.5,505.5 L605.5,517.5 L604.5,518.5 L604.5,519.5 L602.5,521.5 L601.5,521.5 L599.5,523.5 L597.5,523.5 L597.5,537.5 L596.5,538.5 L596.5,543.5 L595.5,544.5 L592.5,544.5 L591.5,545.5 L590.5,545.5 L588.5,547.5 L588.5,561.5 L587.5,562.5 L587.5,564.5 L586.5,565.5 L581.5,565.5 L580.5,566.5 L580.5,582.5 L579.5,583.5 L572.5,583.5 L572.5,589.5 L570.5,591.5 L243.5,591.5 L243.5,598.5 L242.5,599.5 L235.5,599.5 L235.5,611.5 L233.5,613.5 L226.5,613.5 L226.5,620.5 L608.5,620.5 L608.5,612.5 L609.5,611.5 L614.5,611.5 L615.5,610.5 L616.5,610.5 L617.5,609.5 L616.5,608.5 L616.5,602.5 L617.5,601.5 L617.5,600.5 L618.5,599.5 L619.5,599.5 L620.5,598.5 L624.5,598.5 L624.5,582.5 L625.5,581.5 L632.5,581.5 L632.5,574.5 L633.5,573.5 L633.5,566.5 L632.5,565.5 L634.5,563.5 L634.5,562.5 L636.5,560.5 L637.5,560.5 L641.5,556.5 L641.5,540.5 L642.5,539.5 L648.5,539.5 L648.5,533.5 L649.5,532.5 L649.5,523.5 L650.5,522.5 L651.5,522.5 L653.5,520.5 L655.5,520.5 L657.5,518.5 L657.5,501.5 L659.5,499.5 L664.5,499.5 L665.5,498.5 L665.5,491.5 L666.5,490.5 L666.5,480.5 L668.5,478.5 L668.5,477.5 L670.5,475.5 L671.5,475.5 L673.5,473.5 L674.5,473.5 L674.5,460.5 L675.5,459.5 L675.5,458.5 L679.5,454.5 L680.5,454.5 L681.5,453.5 L682.5,453.5 L682.5,447.5 L684.5,445.5 L724.5,445.5 L725.5,446.5 L725.5,455.5 L724.5,456.5 L724.5,464.5 L722.5,466.5 L722.5,468.5 L721.5,469.5 L721.5,471.5 L719.5,473.5 L716.5,473.5 L715.5,474.5 L715.5,489.5 L713.5,491.5 L712.5,490.5 L711.5,491.5 L709.5,491.5 L708.5,490.5 L708.5,508.5 L707.5,509.5 L702.5,509.5 L700.5,511.5 L700.5,529.5 L699.5,530.5 L698.5,530.5 L697.5,529.5 L696.5,530.5 L695.5,530.5 L694.5,531.5 L693.5,531.5 L693.5,540.5 L692.5,541.5 L692.5,548.5 L691.5,549.5 L686.5,549.5 L685.5,550.5 L685.5,552.5 L684.5,553.5 L684.5,565.5 L681.5,568.5 L680.5,568.5 L680.5,569.5 L678.5,571.5 L678.5,572.5 L676.5,574.5 L676.5,588.5 L675.5,589.5 L672.5,589.5 L671.5,590.5 L669.5,590.5 L669.5,591.5 L668.5,592.5 L668.5,610.5 L667.5,611.5 L661.5,611.5 L660.5,612.5 L660.5,620.5 L1281.5,620.5 L1281.5,613.5 L1284.5,610.5 L1285.5,610.5 L1286.5,611.5 L1287.5,611.5 L1287.5,610.5 L1288.5,609.5 L1288.5,605.5 L1289.5,604.5 L1289.5,602.5 L1288.5,601.5 L1291.5,598.5 L1295.5,598.5 L1296.5,599.5 L1296.5,583.5 L1298.5,581.5 L1304.5,581.5 L1304.5,572.5 L1305.5,571.5 L1305.5,564.5 L1306.5,563.5 L1307.5,563.5 L1312.5,558.5 L1312.5,545.5 L1314.5,543.5 L1314.5,542.5 L1315.5,541.5 L1316.5,541.5 L1316.5,540.5 L1317.5,539.5 L1320.5,539.5 L1320.5,524.5 L1322.5,522.5 L1322.5,521.5 L1323.5,520.5 L1324.5,520.5 L1327.5,517.5 L1327.5,516.5 L1328.5,515.5 L1328.5,506.5 L1329.5,505.5 L1329.5,502.5 L1331.5,500.5 L1332.5,500.5 L1333.5,499.5 L1335.5,499.5 L1335.5,491.5 L1336.5,490.5 L1336.5,480.5 L1337.5,479.5 L1338.5,479.5 L1339.5,478.5 L1339.5,477.5 L1340.5,476.5 L1342.5,476.5 L1343.5,475.5 L1344.5,475.5 L1344.5,461.5 L1346.5,459.5 L1346.5,458.5 L1347.5,457.5 L1348.5,457.5 L1352.5,453.5 L1352.5,446.5 L1353.5,445.5 L1399.5,445.5 L1400.5,446.5 L1400.5,455.5 L1399.5,456.5 L1397.5,456.5 L1396.5,457.5 L1395.5,457.5 L1394.5,458.5 L1394.5,463.5 L1393.5,464.5 L1393.5,473.5 L1392.5,474.5 L1391.5,474.5 L1391.5,482.5 L1389.5,484.5 L1388.5,484.5 L1388.5,485.5 L1383.5,490.5 L1383.5,508.5 L1382.5,509.5 L1379.5,509.5 L1378.5,510.5 L1377.5,509.5 L1376.5,510.5 L1376.5,511.5 L1375.5,512.5 L1375.5,523.5 L1372.5,526.5 L1372.5,529.5 L1371.5,530.5 L1369.5,530.5 L1368.5,531.5 L1368.5,546.5 L1366.5,548.5 L1363.5,548.5 L1362.5,549.5 L1361.5,549.5 L1361.5,564.5 L1360.5,565.5 L1359.5,565.5 L1358.5,566.5 L1357.5,566.5 L1357.5,572.5 L1356.5,573.5 L1354.5,573.5 L1353.5,574.5 L1352.5,574.5 L1352.5,590.5 L1351.5,591.5 L1344.5,591.5 L1344.5,610.5 L1343.5,611.5 L1338.5,611.5 L1337.5,612.5 L1337.5,620.5 L1381.5,620.5 L1382.5,619.5 L1382.5,613.5 L1383.5,612.5 L1389.5,612.5 L1390.5,611.5 L1390.5,600.5 L1392.5,598.5 L1398.5,598.5 L1398.5,583.5 L1400.5,581.5 L1406.5,581.5 L1406.5,565.5 L1410.5,561.5 L1411.5,561.5 L1414.5,558.5 L1414.5,546.5 L1415.5,545.5 L1416.5,545.5 L1418.5,543.5 L1419.5,543.5 L1420.5,542.5 L1421.5,542.5 L1421.5,526.5 L1424.5,523.5 L1427.5,523.5 L1428.5,522.5 L1429.5,522.5 L1429.5,507.5 L1430.5,506.5 L1430.5,504.5 L1431.5,503.5 L1432.5,503.5 L1433.5,502.5 L1436.5,502.5 L1437.5,501.5 L1437.5,482.5 L1439.5,480.5 L1440.5,480.5 L1442.5,478.5 L1443.5,478.5 L1446.5,475.5 L1446.5,460.5 L1448.5,458.5 L1450.5,458.5 L1451.5,457.5 L1453.5,457.5 L1453.5,444.5 L1454.5,443.5 L1454.5,434.5 L1453.5,433.5 L1453.5,429.5 L1452.5,430.5 L1448.5,430.5 L1446.5,428.5 L1446.5,421.5 L1439.5,421.5 L1437.5,419.5 L1437.5,412.5 L1366.5,412.5 L1365.5,411.5 L1365.5,404.5 L1367.5,402.5 L1370.5,402.5 L1371.5,401.5 L1372.5,401.5 L1372.5,395.5 L1373.5,394.5 L1373.5,383.5 L1377.5,379.5 L1378.5,379.5 L1380.5,377.5 L1381.5,377.5 L1381.5,370.5 L1382.5,369.5 L1382.5,363.5 L1383.5,362.5 L1383.5,360.5 L1384.5,359.5 L1384.5,358.5 L1386.5,356.5 L1388.5,356.5 L1389.5,355.5 L1389.5,347.5 L1390.5,346.5 L1390.5,337.5 L1391.5,336.5 L1397.5,336.5 L1398.5,335.5 L1397.5,334.5 L1397.5,332.5 L1398.5,331.5 L1398.5,328.5 L1351.5,328.5 L1351.5,334.5 L1350.5,335.5 L1350.5,336.5 L1349.5,337.5 L1348.5,337.5 L1347.5,336.5 L1346.5,337.5 L1343.5,337.5 L1342.5,338.5 L1342.5,346.5 L1341.5,347.5 L1341.5,356.5 L1340.5,357.5 L1333.5,357.5 L1333.5,368.5 L1332.5,369.5 L1332.5,377.5 L1330.5,379.5 L1327.5,379.5 L1327.5,382.5 L1326.5,383.5 L1326.5,384.5 L1324.5,386.5 L1324.5,395.5 L1323.5,396.5 L1322.5,396.5 L1320.5,398.5 L1319.5,398.5 L1318.5,399.5 L1318.5,400.5 L1317.5,401.5 L1317.5,414.5 L1316.5,415.5 L1316.5,416.5 L1313.5,419.5 L1313.5,420.5 L1312.5,421.5 L1308.5,421.5 L1308.5,437.5 L1307.5,438.5 L1301.5,438.5 L1300.5,439.5 L1300.5,454.5 L1299.5,455.5 L1297.5,455.5 L1296.5,456.5 L1294.5,456.5 L1294.5,464.5 L1293.5,465.5 L1293.5,473.5 L1292.5,474.5 L1290.5,474.5 L1290.5,481.5 L1288.5,483.5 L1288.5,489.5 L1287.5,490.5 L1282.5,490.5 L1281.5,491.5 L1281.5,493.5 L1282.5,494.5 L1282.5,502.5 L1281.5,503.5 L1282.5,504.5 L1282.5,506.5 L1281.5,507.5 L1281.5,508.5 L1279.5,510.5 L1278.5,509.5 L1277.5,510.5 L1276.5,510.5 L1276.5,511.5 L1274.5,513.5 L1274.5,527.5 L1272.5,529.5 L1270.5,529.5 L1266.5,533.5 L1266.5,544.5 L1263.5,547.5 L1262.5,547.5 L1260.5,549.5 L1260.5,554.5 L1259.5,555.5 L1259.5,564.5 L1258.5,565.5 L1252.5,565.5 L1252.5,582.5 L1251.5,583.5 L1244.5,583.5 L1244.5,589.5 L1242.5,591.5 L725.5,591.5 L723.5,589.5 L723.5,583.5 L725.5,581.5 L730.5,581.5 L730.5,580.5 L731.5,579.5 L731.5,564.5 L739.5,556.5 L740.5,556.5 L739.5,555.5 L739.5,554.5 L740.5,553.5 L740.5,540.5 L741.5,539.5 L747.5,539.5 L747.5,533.5 L748.5,532.5 L748.5,523.5 L750.5,521.5 L751.5,521.5 L752.5,520.5 L753.5,520.5 L753.5,519.5 L754.5,518.5 L755.5,518.5 L755.5,517.5 L757.5,515.5 L757.5,500.5 L758.5,499.5 L761.5,499.5 L764.5,496.5 L764.5,494.5 L765.5,493.5 L765.5,490.5 L766.5,489.5 L766.5,488.5 L765.5,487.5 L765.5,475.5 L768.5,472.5 L773.5,472.5 L773.5,471.5 L774.5,470.5 L774.5,455.5 L777.5,452.5 L778.5,452.5 L778.5,449.5 L781.5,446.5 L781.5,445.5 L782.5,444.5 L782.5,430.5 L781.5,429.5 L775.5,429.5 L774.5,428.5 L774.5,421.5 L767.5,421.5 L766.5,420.5 L766.5,412.5 L699.5,412.5 L698.5,411.5 L698.5,401.5 L699.5,400.5 L700.5,400.5 L702.5,398.5 L703.5,398.5 L705.5,396.5 L705.5,386.5 L707.5,384.5 L707.5,382.5 L708.5,381.5 L708.5,380.5 L709.5,379.5 L709.5,378.5 L710.5,377.5 L711.5,377.5 L712.5,376.5 L714.5,376.5 L714.5,362.5 L716.5,360.5 L716.5,359.5 L717.5,358.5 L718.5,358.5 L720.5,356.5 L721.5,356.5 L722.5,355.5 L722.5,337.5 L723.5,336.5 L730.5,336.5 L730.5,328.5 Z" fill="#f8e8d1" fill-rule="evenodd"/>
  <path d="M1005.5,413.5 L1005.5,420.5 L1004.5,421.5 L991.5,421.5 L991.5,429.5 L990.5,430.5 L982.5,430.5 L982.5,437.5 L981.5,438.5 L974.5,438.5 L974.5,448.5 L972.5,450.5 L972.5,451.5 L968.5,455.5 L966.5,455.5 L966.5,473.5 L965.5,474.5 L957.5,474.5 L957.5,490.5 L956.5,491.5 L955.5,491.5 L953.5,493.5 L952.5,493.5 L952.5,494.5 L950.5,496.5 L950.5,512.5 L949.5,513.5 L945.5,513.5 L944.5,514.5 L942.5,514.5 L942.5,531.5 L941.5,532.5 L940.5,532.5 L938.5,534.5 L938.5,535.5 L937.5,536.5 L936.5,536.5 L936.5,537.5 L933.5,540.5 L933.5,555.5 L939.5,555.5 L941.5,557.5 L941.5,563.5 L945.5,563.5 L946.5,564.5 L947.5,563.5 L948.5,563.5 L950.5,565.5 L950.5,572.5 L1057.5,572.5 L1057.5,565.5 L1058.5,564.5 L1059.5,564.5 L1060.5,563.5 L1068.5,563.5 L1069.5,564.5 L1070.5,564.5 L1071.5,563.5 L1070.5,562.5 L1071.5,561.5 L1071.5,556.5 L1072.5,555.5 L1080.5,555.5 L1080.5,548.5 L1081.5,547.5 L1085.5,547.5 L1088.5,544.5 L1087.5,543.5 L1087.5,536.5 L1088.5,535.5 L1088.5,531.5 L1089.5,530.5 L1095.5,530.5 L1095.5,527.5 L1096.5,526.5 L1096.5,512.5 L1100.5,508.5 L1101.5,508.5 L1102.5,507.5 L1102.5,503.5 L1103.5,502.5 L1103.5,492.5 L1104.5,491.5 L1105.5,491.5 L1107.5,489.5 L1108.5,490.5 L1108.5,481.5 L1109.5,480.5 L1110.5,480.5 L1110.5,479.5 L1112.5,477.5 L1112.5,475.5 L1113.5,474.5 L1114.5,474.5 L1114.5,473.5 L1115.5,472.5 L1116.5,472.5 L1116.5,460.5 L1117.5,459.5 L1117.5,458.5 L1119.5,456.5 L1119.5,455.5 L1120.5,454.5 L1122.5,454.5 L1123.5,453.5 L1124.5,453.5 L1123.5,452.5 L1123.5,440.5 L1124.5,439.5 L1123.5,438.5 L1123.5,437.5 L1124.5,436.5 L1124.5,430.5 L1117.5,430.5 L1116.5,429.5 L1116.5,421.5 L1109.5,421.5 L1108.5,420.5 L1108.5,413.5 Z M1028.5,444.5 L1029.5,444.5 L1030.5,445.5 L1051.5,445.5 L1052.5,444.5 L1062.5,444.5 L1063.5,445.5 L1071.5,445.5 L1072.5,446.5 L1072.5,456.5 L1071.5,457.5 L1070.5,457.5 L1069.5,458.5 L1064.5,458.5 L1064.5,481.5 L1063.5,482.5 L1055.5,482.5 L1055.5,499.5 L1054.5,500.5 L1052.5,500.5 L1051.5,501.5 L1051.5,507.5 L1050.5,508.5 L1049.5,508.5 L1046.5,511.5 L1046.5,531.5 L1045.5,532.5 L1038.5,532.5 L1038.5,539.5 L1036.5,541.5 L989.5,541.5 L988.5,540.5 L988.5,529.5 L989.5,528.5 L990.5,528.5 L992.5,526.5 L993.5,526.5 L994.5,525.5 L994.5,524.5 L996.5,522.5 L996.5,508.5 L997.5,507.5 L997.5,506.5 L998.5,505.5 L999.5,505.5 L1001.5,503.5 L1002.5,504.5 L1003.5,503.5 L1003.5,491.5 L1004.5,490.5 L1005.5,490.5 L1007.5,488.5 L1008.5,488.5 L1009.5,487.5 L1009.5,486.5 L1010.5,485.5 L1010.5,474.5 L1012.5,472.5 L1017.5,472.5 L1017.5,460.5 L1018.5,459.5 L1018.5,458.5 L1017.5,457.5 L1017.5,456.5 L1019.5,454.5 L1020.5,454.5 L1021.5,453.5 L1026.5,453.5 L1026.5,446.5 Z M829.5,413.5 L829.5,420.5 L828.5,421.5 L819.5,421.5 L819.5,428.5 L817.5,430.5 L810.5,430.5 L810.5,437.5 L809.5,438.5 L801.5,438.5 L801.5,448.5 L799.5,450.5 L799.5,452.5 L796.5,455.5 L794.5,455.5 L793.5,456.5 L793.5,473.5 L792.5,474.5 L785.5,474.5 L785.5,490.5 L783.5,492.5 L782.5,492.5 L782.5,493.5 L781.5,494.5 L780.5,494.5 L779.5,495.5 L778.5,495.5 L778.5,496.5 L776.5,498.5 L776.5,512.5 L775.5,513.5 L772.5,513.5 L772.5,514.5 L771.5,515.5 L770.5,515.5 L769.5,516.5 L768.5,516.5 L768.5,532.5 L767.5,533.5 L767.5,535.5 L766.5,536.5 L765.5,536.5 L765.5,537.5 L764.5,538.5 L763.5,538.5 L763.5,539.5 L761.5,541.5 L760.5,541.5 L760.5,555.5 L766.5,555.5 L768.5,557.5 L768.5,564.5 L769.5,563.5 L774.5,563.5 L776.5,565.5 L776.5,572.5 L884.5,572.5 L884.5,566.5 L885.5,565.5 L885.5,564.5 L886.5,563.5 L887.5,563.5 L888.5,564.5 L889.5,564.5 L890.5,563.5 L897.5,563.5 L897.5,557.5 L899.5,555.5 L906.5,555.5 L906.5,548.5 L907.5,547.5 L914.5,547.5 L914.5,536.5 L915.5,535.5 L915.5,534.5 L914.5,533.5 L915.5,532.5 L915.5,531.5 L916.5,530.5 L921.5,530.5 L921.5,529.5 L922.5,528.5 L922.5,512.5 L923.5,511.5 L924.5,511.5 L927.5,508.5 L928.5,508.5 L930.5,506.5 L930.5,499.5 L931.5,498.5 L931.5,495.5 L932.5,494.5 L932.5,490.5 L936.5,486.5 L937.5,486.5 L937.5,484.5 L939.5,482.5 L939.5,471.5 L942.5,468.5 L943.5,468.5 L943.5,467.5 L944.5,466.5 L945.5,466.5 L945.5,464.5 L947.5,462.5 L947.5,454.5 L948.5,453.5 L948.5,452.5 L950.5,450.5 L950.5,449.5 L952.5,447.5 L953.5,447.5 L953.5,445.5 L954.5,444.5 L954.5,430.5 L948.5,430.5 L947.5,429.5 L947.5,425.5 L946.5,424.5 L946.5,422.5 L947.5,421.5 L939.5,421.5 L938.5,420.5 L938.5,413.5 Z M864.5,445.5 L865.5,444.5 L872.5,444.5 L873.5,445.5 L896.5,445.5 L897.5,444.5 L898.5,445.5 L899.5,445.5 L900.5,446.5 L900.5,454.5 L898.5,456.5 L892.5,456.5 L892.5,474.5 L891.5,475.5 L888.5,475.5 L887.5,476.5 L886.5,476.5 L886.5,480.5 L885.5,481.5 L885.5,491.5 L883.5,493.5 L882.5,493.5 L881.5,494.5 L880.5,494.5 L879.5,495.5 L879.5,512.5 L878.5,513.5 L875.5,513.5 L874.5,514.5 L873.5,514.5 L872.5,515.5 L872.5,522.5 L871.5,523.5 L871.5,524.5 L872.5,525.5 L872.5,529.5 L871.5,530.5 L871.5,531.5 L870.5,532.5 L867.5,532.5 L866.5,531.5 L865.5,531.5 L864.5,532.5 L863.5,532.5 L863.5,540.5 L862.5,541.5 L813.5,541.5 L812.5,540.5 L812.5,531.5 L813.5,530.5 L816.5,530.5 L817.5,529.5 L819.5,529.5 L819.5,518.5 L821.5,516.5 L823.5,516.5 L824.5,515.5 L825.5,515.5 L827.5,513.5 L827.5,496.5 L829.5,494.5 L830.5,494.5 L831.5,495.5 L831.5,494.5 L832.5,493.5 L833.5,493.5 L833.5,492.5 L835.5,490.5 L835.5,474.5 L837.5,472.5 L838.5,473.5 L842.5,473.5 L844.5,471.5 L843.5,470.5 L843.5,465.5 L844.5,464.5 L844.5,455.5 L845.5,454.5 L846.5,454.5 L847.5,453.5 L851.5,453.5 L852.5,454.5 L852.5,446.5 L853.5,445.5 Z M499.5,413.5 L499.5,419.5 L497.5,421.5 L489.5,421.5 L489.5,429.5 L488.5,430.5 L480.5,430.5 L480.5,436.5 L478.5,438.5 L471.5,438.5 L471.5,454.5 L469.5,456.5 L462.5,456.5 L462.5,473.5 L459.5,476.5 L458.5,476.5 L456.5,478.5 L456.5,479.5 L455.5,480.5 L455.5,490.5 L461.5,490.5 L463.5,492.5 L463.5,499.5 L470.5,499.5 L471.5,500.5 L471.5,507.5 L536.5,507.5 L538.5,509.5 L538.5,528.5 L537.5,529.5 L538.5,530.5 L536.5,532.5 L529.5,532.5 L529.5,539.5 L527.5,541.5 L435.5,541.5 L435.5,542.5 L434.5,543.5 L434.5,548.5 L433.5,549.5 L429.5,549.5 L428.5,550.5 L428.5,554.5 L427.5,555.5 L426.5,555.5 L426.5,564.5 L425.5,565.5 L422.5,565.5 L421.5,566.5 L419.5,566.5 L419.5,571.5 L418.5,572.5 L547.5,572.5 L547.5,565.5 L549.5,563.5 L550.5,564.5 L551.5,563.5 L560.5,563.5 L560.5,557.5 L562.5,555.5 L569.5,555.5 L569.5,548.5 L570.5,547.5 L575.5,547.5 L577.5,545.5 L577.5,541.5 L576.5,540.5 L576.5,539.5 L577.5,538.5 L577.5,531.5 L578.5,530.5 L582.5,530.5 L584.5,528.5 L583.5,527.5 L583.5,524.5 L584.5,523.5 L584.5,522.5 L585.5,521.5 L585.5,513.5 L586.5,512.5 L586.5,511.5 L587.5,510.5 L588.5,510.5 L590.5,508.5 L591.5,508.5 L593.5,506.5 L593.5,491.5 L588.5,491.5 L586.5,489.5 L586.5,483.5 L580.5,483.5 L578.5,481.5 L578.5,480.5 L579.5,479.5 L579.5,474.5 L511.5,474.5 L510.5,473.5 L510.5,456.5 L512.5,454.5 L514.5,454.5 L515.5,453.5 L518.5,453.5 L518.5,446.5 L519.5,445.5 L552.5,445.5 L553.5,444.5 L559.5,444.5 L560.5,445.5 L586.5,445.5 L587.5,444.5 L600.5,444.5 L601.5,445.5 L609.5,445.5 L609.5,437.5 L610.5,436.5 L616.5,436.5 L616.5,429.5 L617.5,428.5 L618.5,428.5 L618.5,426.5 L620.5,424.5 L620.5,423.5 L621.5,422.5 L622.5,422.5 L624.5,420.5 L625.5,420.5 L625.5,413.5 Z M336.5,413.5 L336.5,420.5 L335.5,421.5 L326.5,421.5 L326.5,429.5 L325.5,430.5 L316.5,430.5 L317.5,431.5 L316.5,432.5 L316.5,437.5 L315.5,438.5 L309.5,438.5 L308.5,437.5 L308.5,454.5 L307.5,455.5 L302.5,455.5 L301.5,456.5 L300.5,455.5 L299.5,456.5 L300.5,457.5 L300.5,461.5 L299.5,462.5 L299.5,471.5 L300.5,472.5 L300.5,473.5 L299.5,474.5 L297.5,474.5 L297.5,475.5 L296.5,476.5 L295.5,476.5 L293.5,478.5 L293.5,479.5 L292.5,480.5 L292.5,490.5 L298.5,490.5 L300.5,492.5 L300.5,499.5 L306.5,499.5 L307.5,500.5 L307.5,505.5 L308.5,506.5 L307.5,507.5 L373.5,507.5 L374.5,508.5 L374.5,531.5 L373.5,532.5 L366.5,532.5 L366.5,540.5 L365.5,541.5 L269.5,541.5 L270.5,542.5 L270.5,548.5 L269.5,549.5 L261.5,549.5 L261.5,551.5 L262.5,552.5 L262.5,557.5 L261.5,558.5 L261.5,564.5 L260.5,565.5 L253.5,565.5 L253.5,572.5 L383.5,572.5 L383.5,569.5 L384.5,568.5 L384.5,565.5 L385.5,564.5 L395.5,564.5 L395.5,557.5 L397.5,555.5 L405.5,555.5 L405.5,548.5 L406.5,547.5 L410.5,547.5 L413.5,544.5 L412.5,543.5 L412.5,540.5 L413.5,539.5 L413.5,537.5 L414.5,536.5 L413.5,535.5 L413.5,532.5 L415.5,530.5 L419.5,530.5 L420.5,529.5 L420.5,524.5 L421.5,523.5 L421.5,512.5 L422.5,511.5 L423.5,511.5 L425.5,509.5 L426.5,509.5 L427.5,508.5 L429.5,508.5 L429.5,507.5 L430.5,506.5 L430.5,491.5 L423.5,491.5 L422.5,490.5 L422.5,484.5 L423.5,483.5 L423.5,482.5 L422.5,482.5 L421.5,483.5 L420.5,482.5 L416.5,482.5 L415.5,481.5 L415.5,474.5 L348.5,474.5 L347.5,473.5 L347.5,455.5 L349.5,453.5 L355.5,453.5 L355.5,447.5 L357.5,445.5 L375.5,445.5 L376.5,444.5 L393.5,444.5 L394.5,445.5 L434.5,445.5 L435.5,444.5 L443.5,444.5 L444.5,445.5 L445.5,444.5 L450.5,444.5 L450.5,437.5 L451.5,436.5 L456.5,436.5 L457.5,435.5 L457.5,431.5 L458.5,430.5 L458.5,421.5 L459.5,420.5 L460.5,420.5 L461.5,419.5 L463.5,419.5 L464.5,420.5 L465.5,419.5 L466.5,420.5 L466.5,414.5 L467.5,413.5 Z M1171.5,412.5 L1171.5,420.5 L1170.5,421.5 L1161.5,421.5 L1161.5,429.5 L1160.5,430.5 L1152.5,430.5 L1152.5,436.5 L1150.5,438.5 L1143.5,438.5 L1143.5,454.5 L1141.5,456.5 L1135.5,456.5 L1135.5,473.5 L1134.5,474.5 L1133.5,474.5 L1133.5,475.5 L1132.5,476.5 L1130.5,476.5 L1130.5,477.5 L1129.5,478.5 L1129.5,479.5 L1128.5,480.5 L1128.5,490.5 L1134.5,490.5 L1135.5,491.5 L1135.5,499.5 L1142.5,499.5 L1143.5,500.5 L1143.5,507.5 L1209.5,507.5 L1210.5,508.5 L1210.5,531.5 L1209.5,532.5 L1202.5,532.5 L1202.5,539.5 L1200.5,541.5 L1108.5,541.5 L1109.5,542.5 L1109.5,547.5 L1107.5,549.5 L1102.5,549.5 L1101.5,550.5 L1101.5,552.5 L1100.5,553.5 L1100.5,560.5 L1099.5,561.5 L1099.5,564.5 L1098.5,565.5 L1091.5,565.5 L1091.5,572.5 L1219.5,572.5 L1219.5,565.5 L1221.5,563.5 L1222.5,564.5 L1230.5,564.5 L1230.5,556.5 L1231.5,555.5 L1239.5,555.5 L1239.5,549.5 L1241.5,547.5 L1245.5,547.5 L1245.5,546.5 L1246.5,545.5 L1247.5,545.5 L1247.5,536.5 L1248.5,535.5 L1248.5,534.5 L1250.5,532.5 L1251.5,532.5 L1253.5,530.5 L1253.5,529.5 L1254.5,528.5 L1255.5,528.5 L1254.5,527.5 L1254.5,525.5 L1255.5,524.5 L1255.5,514.5 L1258.5,511.5 L1258.5,510.5 L1259.5,509.5 L1261.5,509.5 L1263.5,507.5 L1263.5,491.5 L1257.5,491.5 L1256.5,490.5 L1256.5,482.5 L1254.5,482.5 L1253.5,483.5 L1250.5,483.5 L1249.5,482.5 L1249.5,474.5 L1184.5,474.5 L1183.5,473.5 L1183.5,455.5 L1185.5,453.5 L1191.5,453.5 L1191.5,446.5 L1192.5,445.5 L1215.5,445.5 L1216.5,444.5 L1218.5,444.5 L1219.5,445.5 L1265.5,445.5 L1266.5,444.5 L1279.5,444.5 L1280.5,445.5 L1280.5,442.5 L1281.5,441.5 L1281.5,437.5 L1282.5,436.5 L1288.5,436.5 L1288.5,428.5 L1289.5,427.5 L1289.5,425.5 L1290.5,424.5 L1290.5,421.5 L1291.5,420.5 L1293.5,420.5 L1294.5,419.5 L1296.5,419.5 L1296.5,412.5 L1295.5,413.5 L1172.5,413.5 Z M684.5,328.5 L684.5,336.5 L683.5,337.5 L675.5,337.5 L675.5,353.5 L673.5,355.5 L669.5,355.5 L668.5,356.5 L668.5,367.5 L666.5,369.5 L665.5,368.5 L664.5,369.5 L665.5,370.5 L665.5,377.5 L664.5,378.5 L659.5,378.5 L658.5,379.5 L659.5,380.5 L658.5,381.5 L658.5,394.5 L657.5,395.5 L655.5,395.5 L654.5,396.5 L653.5,395.5 L652.5,396.5 L650.5,396.5 L650.5,411.5 L648.5,413.5 L642.5,413.5 L642.5,426.5 L641.5,427.5 L640.5,427.5 L640.5,428.5 L639.5,429.5 L637.5,429.5 L636.5,430.5 L635.5,430.5 L635.5,443.5 L634.5,444.5 L634.5,446.5 L633.5,447.5 L628.5,447.5 L627.5,448.5 L628.5,449.5 L628.5,450.5 L627.5,451.5 L627.5,462.5 L626.5,463.5 L623.5,463.5 L622.5,464.5 L620.5,464.5 L620.5,481.5 L619.5,482.5 L613.5,482.5 L613.5,500.5 L612.5,501.5 L608.5,501.5 L608.5,502.5 L607.5,503.5 L606.5,503.5 L606.5,504.5 L605.5,505.5 L605.5,518.5 L604.5,519.5 L604.5,520.5 L603.5,521.5 L601.5,521.5 L599.5,523.5 L597.5,523.5 L597.5,537.5 L596.5,538.5 L596.5,543.5 L595.5,544.5 L592.5,544.5 L591.5,545.5 L590.5,545.5 L589.5,546.5 L589.5,560.5 L587.5,562.5 L587.5,564.5 L586.5,565.5 L581.5,565.5 L580.5,566.5 L580.5,582.5 L579.5,583.5 L572.5,583.5 L572.5,590.5 L571.5,591.5 L243.5,591.5 L243.5,592.5 L244.5,593.5 L243.5,594.5 L244.5,595.5 L243.5,596.5 L243.5,599.5 L242.5,600.5 L241.5,599.5 L235.5,599.5 L235.5,612.5 L234.5,613.5 L227.5,613.5 L227.5,620.5 L243.5,620.5 L244.5,619.5 L258.5,619.5 L259.5,620.5 L261.5,620.5 L262.5,619.5 L263.5,620.5 L275.5,620.5 L276.5,619.5 L303.5,619.5 L304.5,620.5 L328.5,620.5 L329.5,619.5 L370.5,619.5 L371.5,620.5 L377.5,620.5 L378.5,619.5 L419.5,619.5 L420.5,620.5 L432.5,620.5 L433.5,619.5 L440.5,619.5 L441.5,620.5 L444.5,620.5 L445.5,619.5 L446.5,620.5 L456.5,620.5 L457.5,619.5 L458.5,619.5 L459.5,620.5 L464.5,620.5 L465.5,619.5 L472.5,619.5 L473.5,620.5 L475.5,620.5 L476.5,619.5 L477.5,620.5 L500.5,620.5 L501.5,619.5 L508.5,619.5 L509.5,620.5 L510.5,620.5 L511.5,619.5 L512.5,620.5 L513.5,619.5 L531.5,619.5 L532.5,620.5 L539.5,620.5 L540.5,619.5 L559.5,619.5 L560.5,620.5 L574.5,620.5 L575.5,619.5 L587.5,619.5 L588.5,620.5 L603.5,620.5 L604.5,619.5 L606.5,619.5 L607.5,620.5 L608.5,619.5 L608.5,612.5 L610.5,610.5 L612.5,610.5 L613.5,611.5 L614.5,611.5 L616.5,609.5 L616.5,600.5 L618.5,598.5 L623.5,598.5 L623.5,582.5 L624.5,581.5 L631.5,581.5 L631.5,575.5 L632.5,574.5 L632.5,564.5 L634.5,562.5 L634.5,561.5 L635.5,560.5 L637.5,560.5 L637.5,559.5 L638.5,558.5 L639.5,558.5 L639.5,557.5 L640.5,556.5 L641.5,556.5 L641.5,540.5 L642.5,539.5 L648.5,539.5 L648.5,529.5 L649.5,528.5 L649.5,522.5 L650.5,521.5 L652.5,521.5 L653.5,520.5 L654.5,520.5 L656.5,518.5 L657.5,518.5 L657.5,500.5 L658.5,499.5 L663.5,499.5 L664.5,498.5 L665.5,498.5 L665.5,490.5 L666.5,489.5 L666.5,479.5 L667.5,478.5 L668.5,478.5 L668.5,477.5 L670.5,475.5 L671.5,475.5 L672.5,474.5 L672.5,473.5 L673.5,472.5 L674.5,472.5 L673.5,471.5 L673.5,467.5 L674.5,466.5 L674.5,460.5 L675.5,459.5 L675.5,457.5 L676.5,456.5 L677.5,456.5 L677.5,455.5 L678.5,454.5 L679.5,454.5 L680.5,453.5 L682.5,453.5 L682.5,446.5 L683.5,445.5 L692.5,445.5 L693.5,444.5 L706.5,444.5 L707.5,445.5 L722.5,445.5 L723.5,444.5 L724.5,445.5 L725.5,445.5 L726.5,446.5 L726.5,454.5 L724.5,456.5 L724.5,465.5 L722.5,467.5 L722.5,471.5 L720.5,473.5 L719.5,473.5 L718.5,474.5 L717.5,474.5 L716.5,473.5 L716.5,490.5 L715.5,491.5 L708.5,491.5 L708.5,508.5 L707.5,509.5 L705.5,509.5 L704.5,510.5 L702.5,510.5 L701.5,511.5 L701.5,529.5 L700.5,530.5 L696.5,530.5 L695.5,531.5 L694.5,531.5 L693.5,532.5 L693.5,541.5 L692.5,542.5 L692.5,548.5 L691.5,549.5 L686.5,549.5 L686.5,550.5 L685.5,551.5 L685.5,555.5 L684.5,556.5 L684.5,560.5 L685.5,561.5 L684.5,562.5 L684.5,565.5 L683.5,566.5 L683.5,567.5 L682.5,568.5 L681.5,568.5 L680.5,569.5 L680.5,570.5 L677.5,573.5 L677.5,586.5 L676.5,587.5 L676.5,589.5 L675.5,590.5 L672.5,590.5 L671.5,591.5 L669.5,591.5 L668.5,592.5 L668.5,610.5 L666.5,612.5 L665.5,611.5 L663.5,611.5 L662.5,612.5 L660.5,612.5 L661.5,613.5 L661.5,620.5 L662.5,619.5 L663.5,620.5 L666.5,620.5 L667.5,619.5 L688.5,619.5 L689.5,620.5 L714.5,620.5 L715.5,619.5 L736.5,619.5 L737.5,620.5 L738.5,620.5 L739.5,619.5 L740.5,620.5 L743.5,620.5 L744.5,619.5 L752.5,619.5 L753.5,620.5 L764.5,620.5 L765.5,619.5 L783.5,619.5 L784.5,620.5 L800.5,620.5 L801.5,619.5 L816.5,619.5 L817.5,620.5 L829.5,620.5 L830.5,619.5 L847.5,619.5 L848.5,620.5 L860.5,620.5 L861.5,619.5 L887.5,619.5 L888.5,620.5 L893.5,620.5 L894.5,619.5 L909.5,619.5 L910.5,620.5 L927.5,620.5 L928.5,619.5 L959.5,619.5 L960.5,620.5 L964.5,620.5 L965.5,619.5 L966.5,620.5 L988.5,620.5 L989.5,619.5 L1007.5,619.5 L1008.5,620.5 L1029.5,620.5 L1030.5,619.5 L1050.5,619.5 L1051.5,620.5 L1067.5,620.5 L1068.5,619.5 L1094.5,619.5 L1095.5,620.5 L1104.5,620.5 L1105.5,619.5 L1123.5,619.5 L1124.5,620.5 L1148.5,620.5 L1149.5,619.5 L1154.5,619.5 L1155.5,620.5 L1173.5,620.5 L1174.5,619.5 L1208.5,619.5 L1209.5,620.5 L1210.5,620.5 L1211.5,619.5 L1215.5,619.5 L1216.5,620.5 L1229.5,620.5 L1230.5,619.5 L1259.5,619.5 L1260.5,620.5 L1267.5,620.5 L1268.5,619.5 L1279.5,619.5 L1280.5,620.5 L1280.5,613.5 L1283.5,610.5 L1287.5,610.5 L1288.5,609.5 L1288.5,600.5 L1290.5,598.5 L1296.5,598.5 L1296.5,582.5 L1297.5,581.5 L1304.5,581.5 L1303.5,580.5 L1303.5,578.5 L1304.5,577.5 L1304.5,564.5 L1305.5,563.5 L1306.5,563.5 L1312.5,557.5 L1312.5,544.5 L1314.5,542.5 L1314.5,541.5 L1315.5,540.5 L1316.5,540.5 L1317.5,539.5 L1320.5,539.5 L1320.5,523.5 L1323.5,520.5 L1324.5,520.5 L1324.5,519.5 L1326.5,517.5 L1327.5,517.5 L1327.5,516.5 L1328.5,515.5 L1328.5,505.5 L1329.5,504.5 L1329.5,501.5 L1331.5,499.5 L1333.5,499.5 L1334.5,498.5 L1335.5,498.5 L1335.5,490.5 L1336.5,489.5 L1336.5,480.5 L1340.5,476.5 L1341.5,476.5 L1343.5,474.5 L1344.5,475.5 L1344.5,460.5 L1348.5,456.5 L1349.5,456.5 L1352.5,453.5 L1351.5,452.5 L1351.5,447.5 L1354.5,444.5 L1360.5,444.5 L1361.5,445.5 L1379.5,445.5 L1380.5,444.5 L1388.5,444.5 L1389.5,445.5 L1399.5,445.5 L1400.5,446.5 L1400.5,456.5 L1399.5,457.5 L1397.5,457.5 L1396.5,458.5 L1395.5,458.5 L1395.5,459.5 L1394.5,460.5 L1394.5,463.5 L1393.5,464.5 L1393.5,473.5 L1392.5,474.5 L1392.5,481.5 L1388.5,485.5 L1388.5,486.5 L1387.5,487.5 L1386.5,487.5 L1386.5,488.5 L1384.5,490.5 L1384.5,496.5 L1383.5,497.5 L1383.5,502.5 L1384.5,503.5 L1384.5,508.5 L1383.5,509.5 L1380.5,509.5 L1379.5,510.5 L1377.5,510.5 L1375.5,512.5 L1376.5,513.5 L1376.5,523.5 L1374.5,525.5 L1373.5,525.5 L1373.5,526.5 L1372.5,527.5 L1372.5,529.5 L1370.5,531.5 L1368.5,531.5 L1368.5,547.5 L1366.5,549.5 L1365.5,548.5 L1364.5,548.5 L1363.5,549.5 L1361.5,549.5 L1361.5,564.5 L1359.5,566.5 L1357.5,566.5 L1357.5,572.5 L1356.5,573.5 L1355.5,573.5 L1354.5,574.5 L1353.5,574.5 L1353.5,578.5 L1352.5,579.5 L1352.5,584.5 L1353.5,585.5 L1352.5,586.5 L1352.5,590.5 L1351.5,591.5 L1345.5,591.5 L1345.5,610.5 L1344.5,611.5 L1342.5,611.5 L1341.5,612.5 L1337.5,612.5 L1338.5,613.5 L1337.5,614.5 L1337.5,617.5 L1338.5,618.5 L1337.5,619.5 L1338.5,620.5 L1343.5,620.5 L1344.5,619.5 L1356.5,619.5 L1357.5,620.5 L1381.5,620.5 L1381.5,613.5 L1382.5,612.5 L1388.5,612.5 L1389.5,611.5 L1389.5,608.5 L1390.5,607.5 L1390.5,604.5 L1389.5,603.5 L1389.5,601.5 L1390.5,600.5 L1390.5,599.5 L1391.5,598.5 L1397.5,598.5 L1397.5,584.5 L1398.5,583.5 L1398.5,582.5 L1399.5,581.5 L1405.5,581.5 L1405.5,580.5 L1406.5,579.5 L1406.5,564.5 L1407.5,563.5 L1408.5,563.5 L1408.5,562.5 L1409.5,561.5 L1411.5,561.5 L1412.5,560.5 L1412.5,559.5 L1413.5,558.5 L1413.5,548.5 L1414.5,547.5 L1414.5,546.5 L1415.5,545.5 L1416.5,545.5 L1416.5,544.5 L1417.5,543.5 L1419.5,543.5 L1421.5,541.5 L1420.5,540.5 L1420.5,538.5 L1421.5,537.5 L1421.5,529.5 L1420.5,528.5 L1420.5,527.5 L1421.5,526.5 L1421.5,525.5 L1422.5,524.5 L1423.5,524.5 L1424.5,523.5 L1426.5,523.5 L1427.5,522.5 L1429.5,522.5 L1429.5,506.5 L1430.5,505.5 L1430.5,504.5 L1431.5,503.5 L1432.5,503.5 L1433.5,502.5 L1435.5,502.5 L1437.5,500.5 L1437.5,481.5 L1438.5,480.5 L1440.5,480.5 L1440.5,479.5 L1441.5,478.5 L1442.5,478.5 L1445.5,475.5 L1445.5,460.5 L1448.5,457.5 L1452.5,457.5 L1453.5,456.5 L1453.5,430.5 L1447.5,430.5 L1445.5,428.5 L1446.5,427.5 L1446.5,421.5 L1438.5,421.5 L1437.5,420.5 L1437.5,413.5 L1366.5,413.5 L1365.5,412.5 L1365.5,403.5 L1366.5,402.5 L1370.5,402.5 L1372.5,400.5 L1372.5,394.5 L1373.5,393.5 L1373.5,382.5 L1374.5,381.5 L1375.5,381.5 L1375.5,380.5 L1376.5,379.5 L1377.5,379.5 L1378.5,378.5 L1379.5,378.5 L1380.5,377.5 L1381.5,377.5 L1381.5,364.5 L1383.5,362.5 L1383.5,359.5 L1386.5,356.5 L1388.5,356.5 L1388.5,355.5 L1389.5,354.5 L1389.5,346.5 L1390.5,345.5 L1389.5,344.5 L1389.5,337.5 L1391.5,335.5 L1397.5,335.5 L1397.5,328.5 L1351.5,328.5 L1351.5,336.5 L1350.5,337.5 L1343.5,337.5 L1342.5,338.5 L1342.5,346.5 L1341.5,347.5 L1341.5,353.5 L1342.5,354.5 L1341.5,355.5 L1341.5,356.5 L1340.5,357.5 L1333.5,357.5 L1333.5,368.5 L1332.5,369.5 L1332.5,378.5 L1331.5,379.5 L1328.5,379.5 L1328.5,380.5 L1327.5,381.5 L1327.5,383.5 L1325.5,385.5 L1325.5,394.5 L1320.5,399.5 L1318.5,399.5 L1318.5,400.5 L1317.5,401.5 L1318.5,402.5 L1318.5,413.5 L1316.5,415.5 L1316.5,416.5 L1314.5,418.5 L1314.5,419.5 L1312.5,421.5 L1309.5,421.5 L1309.5,437.5 L1308.5,438.5 L1307.5,438.5 L1306.5,439.5 L1302.5,439.5 L1301.5,438.5 L1301.5,454.5 L1300.5,455.5 L1298.5,455.5 L1297.5,456.5 L1295.5,456.5 L1295.5,458.5 L1294.5,459.5 L1294.5,473.5 L1293.5,474.5 L1291.5,474.5 L1290.5,475.5 L1290.5,482.5 L1289.5,483.5 L1289.5,487.5 L1288.5,488.5 L1288.5,490.5 L1287.5,491.5 L1286.5,490.5 L1285.5,491.5 L1284.5,491.5 L1283.5,490.5 L1282.5,490.5 L1282.5,507.5 L1281.5,508.5 L1281.5,509.5 L1280.5,510.5 L1277.5,510.5 L1276.5,511.5 L1276.5,512.5 L1274.5,514.5 L1274.5,518.5 L1275.5,519.5 L1275.5,523.5 L1274.5,524.5 L1274.5,528.5 L1273.5,529.5 L1270.5,529.5 L1266.5,533.5 L1267.5,534.5 L1267.5,535.5 L1266.5,536.5 L1266.5,544.5 L1265.5,545.5 L1265.5,546.5 L1264.5,547.5 L1262.5,547.5 L1260.5,549.5 L1260.5,564.5 L1259.5,565.5 L1253.5,565.5 L1252.5,566.5 L1253.5,567.5 L1253.5,572.5 L1252.5,573.5 L1252.5,582.5 L1251.5,583.5 L1244.5,583.5 L1244.5,590.5 L1243.5,591.5 L724.5,591.5 L723.5,590.5 L723.5,582.5 L724.5,581.5 L730.5,581.5 L730.5,579.5 L731.5,578.5 L731.5,563.5 L734.5,560.5 L735.5,560.5 L735.5,559.5 L736.5,558.5 L737.5,558.5 L739.5,556.5 L739.5,542.5 L740.5,541.5 L740.5,540.5 L741.5,539.5 L742.5,539.5 L743.5,538.5 L744.5,539.5 L746.5,539.5 L747.5,538.5 L747.5,530.5 L748.5,529.5 L748.5,527.5 L747.5,526.5 L747.5,525.5 L748.5,524.5 L748.5,522.5 L749.5,521.5 L750.5,521.5 L751.5,520.5 L752.5,520.5 L755.5,517.5 L755.5,516.5 L756.5,515.5 L757.5,515.5 L756.5,514.5 L756.5,510.5 L757.5,509.5 L756.5,508.5 L756.5,501.5 L759.5,498.5 L760.5,499.5 L763.5,496.5 L763.5,495.5 L764.5,494.5 L764.5,491.5 L765.5,490.5 L765.5,474.5 L767.5,472.5 L773.5,472.5 L773.5,470.5 L774.5,469.5 L774.5,454.5 L775.5,453.5 L776.5,453.5 L777.5,452.5 L777.5,451.5 L778.5,450.5 L778.5,448.5 L780.5,446.5 L780.5,445.5 L781.5,444.5 L782.5,444.5 L782.5,430.5 L775.5,430.5 L774.5,429.5 L774.5,421.5 L766.5,421.5 L765.5,420.5 L765.5,413.5 L698.5,413.5 L697.5,412.5 L697.5,401.5 L698.5,400.5 L699.5,400.5 L701.5,398.5 L703.5,398.5 L703.5,397.5 L705.5,395.5 L705.5,385.5 L706.5,384.5 L706.5,383.5 L708.5,381.5 L708.5,379.5 L709.5,378.5 L709.5,377.5 L710.5,376.5 L713.5,376.5 L713.5,375.5 L714.5,374.5 L714.5,362.5 L715.5,361.5 L715.5,360.5 L717.5,358.5 L718.5,358.5 L718.5,357.5 L719.5,356.5 L721.5,356.5 L721.5,347.5 L722.5,346.5 L722.5,339.5 L721.5,338.5 L722.5,337.5 L722.5,336.5 L723.5,335.5 L730.5,335.5 L730.5,328.5 L709.5,328.5 L708.5,329.5 L705.5,329.5 L704.5,328.5 Z" fill="#111111" fill-rule="evenodd" opacity="0.86"/>
  <path d="M949.5,591.5 L950.5,592.5 L951.5,592.5 L952.5,591.5 L954.5,591.5 L955.5,592.5 L956.5,592.5 L957.5,591.5 L958.5,591.5 L959.5,592.5 L960.5,591.5 L961.5,592.5 L984.5,592.5 L985.5,591.5 L986.5,591.5 L987.5,592.5 L988.5,591.5 L994.5,591.5 L995.5,592.5 L997.5,592.5 L998.5,591.5 L1010.5,591.5 L1011.5,592.5 L1027.5,592.5 L1028.5,591.5 L1029.5,592.5 L1030.5,591.5 L1034.5,591.5 L1035.5,592.5 L1072.5,592.5 L1073.5,591.5 L1074.5,591.5 Z M780.5,591.5 L781.5,592.5 L789.5,592.5 L790.5,593.5 L790.5,594.5 L789.5,595.5 L788.5,594.5 L787.5,594.5 L786.5,595.5 L787.5,594.5 L788.5,594.5 L789.5,595.5 L792.5,595.5 L793.5,594.5 L794.5,595.5 L796.5,595.5 L798.5,597.5 L797.5,598.5 L796.5,598.5 L798.5,598.5 L799.5,597.5 L799.5,596.5 L798.5,595.5 L799.5,594.5 L800.5,594.5 L799.5,593.5 L800.5,592.5 L806.5,592.5 L807.5,591.5 L808.5,592.5 L823.5,592.5 L824.5,591.5 L825.5,592.5 L826.5,592.5 L827.5,591.5 L837.5,591.5 L838.5,592.5 L845.5,592.5 L846.5,593.5 L845.5,594.5 L844.5,594.5 L852.5,594.5 L851.5,594.5 L850.5,593.5 L851.5,592.5 L864.5,592.5 L865.5,591.5 L866.5,592.5 L867.5,591.5 L868.5,592.5 L878.5,592.5 L879.5,591.5 L883.5,591.5 Z M414.5,591.5 L413.5,592.5 L412.5,592.5 L424.5,592.5 L426.5,594.5 L426.5,595.5 L427.5,594.5 L428.5,594.5 L429.5,595.5 L427.5,597.5 L426.5,597.5 L426.5,598.5 L429.5,595.5 L430.5,595.5 L431.5,596.5 L434.5,596.5 L435.5,595.5 L435.5,594.5 L434.5,594.5 L433.5,593.5 L434.5,592.5 L444.5,592.5 L445.5,591.5 L451.5,591.5 L452.5,592.5 L453.5,591.5 L454.5,592.5 L470.5,592.5 L471.5,591.5 L475.5,591.5 L476.5,592.5 L477.5,591.5 L478.5,592.5 L500.5,592.5 L501.5,591.5 L502.5,592.5 L503.5,591.5 L504.5,592.5 L505.5,592.5 L506.5,591.5 L507.5,592.5 L523.5,592.5 L524.5,591.5 L525.5,592.5 L526.5,591.5 L531.5,591.5 L532.5,592.5 L533.5,591.5 L536.5,591.5 L537.5,592.5 L549.5,592.5 L550.5,591.5 L552.5,591.5 L418.5,591.5 L417.5,592.5 L416.5,592.5 L415.5,591.5 Z M244.5,591.5 L244.5,592.5 L245.5,591.5 L248.5,591.5 L249.5,592.5 L261.5,592.5 L262.5,591.5 L263.5,592.5 L264.5,591.5 L273.5,591.5 L274.5,592.5 L276.5,592.5 L277.5,591.5 L278.5,591.5 L279.5,592.5 L280.5,591.5 L281.5,592.5 L309.5,592.5 L310.5,591.5 L311.5,592.5 L312.5,592.5 L313.5,591.5 L314.5,592.5 L328.5,592.5 L329.5,591.5 L335.5,591.5 L336.5,592.5 L362.5,592.5 L363.5,591.5 L373.5,591.5 L374.5,592.5 L389.5,592.5 L390.5,591.5 L392.5,591.5 Z M944.5,563.5 L949.5,563.5 L950.5,564.5 L950.5,572.5 L1057.5,572.5 L1057.5,565.5 L1058.5,564.5 L1057.5,565.5 L1057.5,569.5 L1056.5,570.5 L1055.5,569.5 L1055.5,570.5 L1054.5,571.5 L1052.5,571.5 L1051.5,572.5 L1048.5,572.5 L1047.5,571.5 L1046.5,571.5 L1045.5,572.5 L1032.5,572.5 L1031.5,571.5 L1026.5,571.5 L1025.5,572.5 L1011.5,572.5 L1010.5,571.5 L1009.5,571.5 L1008.5,570.5 L1006.5,570.5 L1005.5,571.5 L1001.5,571.5 L1000.5,572.5 L992.5,572.5 L991.5,571.5 L985.5,571.5 L984.5,570.5 L985.5,569.5 L984.5,569.5 L983.5,568.5 L974.5,568.5 L975.5,569.5 L974.5,570.5 L973.5,570.5 L972.5,571.5 L971.5,571.5 L970.5,570.5 L968.5,570.5 L966.5,572.5 L951.5,572.5 L950.5,571.5 L950.5,564.5 L949.5,563.5 Z M882.5,562.5 L880.5,564.5 L880.5,566.5 L881.5,567.5 L881.5,568.5 L882.5,569.5 L882.5,565.5 L883.5,564.5 L884.5,565.5 L884.5,571.5 L883.5,572.5 L873.5,572.5 L872.5,571.5 L869.5,571.5 L866.5,568.5 L860.5,568.5 L859.5,569.5 L858.5,568.5 L856.5,568.5 L855.5,567.5 L854.5,567.5 L853.5,568.5 L852.5,567.5 L851.5,568.5 L849.5,568.5 L848.5,569.5 L847.5,569.5 L846.5,570.5 L842.5,570.5 L841.5,571.5 L838.5,571.5 L837.5,572.5 L812.5,572.5 L811.5,571.5 L808.5,571.5 L807.5,570.5 L806.5,570.5 L805.5,569.5 L795.5,569.5 L794.5,570.5 L793.5,570.5 L792.5,571.5 L791.5,571.5 L790.5,572.5 L777.5,572.5 L776.5,571.5 L776.5,565.5 L777.5,564.5 L778.5,565.5 L778.5,566.5 L779.5,566.5 L779.5,565.5 L778.5,564.5 L776.5,564.5 L775.5,563.5 L770.5,563.5 L775.5,563.5 L776.5,564.5 L776.5,572.5 L884.5,572.5 L884.5,565.5 L882.5,563.5 Z M262.5,558.5 L262.5,564.5 L261.5,565.5 L253.5,565.5 L253.5,572.5 L383.5,572.5 L383.5,565.5 L385.5,563.5 L395.5,563.5 L384.5,563.5 L384.5,564.5 L383.5,565.5 L383.5,571.5 L382.5,572.5 L381.5,572.5 L380.5,571.5 L378.5,571.5 L377.5,572.5 L359.5,572.5 L358.5,571.5 L353.5,571.5 L352.5,572.5 L333.5,572.5 L332.5,571.5 L328.5,571.5 L327.5,572.5 L314.5,572.5 L313.5,571.5 L306.5,571.5 L305.5,572.5 L298.5,572.5 L297.5,571.5 L296.5,571.5 L295.5,570.5 L289.5,570.5 L288.5,571.5 L283.5,571.5 L282.5,572.5 L260.5,572.5 L258.5,570.5 L261.5,567.5 L263.5,567.5 L264.5,566.5 L265.5,567.5 L265.5,565.5 L266.5,564.5 L268.5,564.5 L267.5,563.5 L267.5,562.5 L265.5,562.5 L264.5,561.5 L264.5,563.5 L263.5,564.5 L262.5,563.5 Z M1100.5,554.5 L1100.5,561.5 L1099.5,562.5 L1099.5,564.5 L1097.5,566.5 L1091.5,566.5 L1091.5,572.5 L1219.5,572.5 L1219.5,564.5 L1220.5,563.5 L1227.5,563.5 L1219.5,563.5 L1219.5,564.5 L1218.5,565.5 L1216.5,563.5 L1216.5,564.5 L1215.5,565.5 L1214.5,565.5 L1216.5,567.5 L1216.5,568.5 L1217.5,567.5 L1218.5,568.5 L1218.5,571.5 L1217.5,572.5 L1193.5,572.5 L1192.5,571.5 L1181.5,571.5 L1180.5,572.5 L1169.5,572.5 L1167.5,570.5 L1162.5,570.5 L1161.5,569.5 L1160.5,569.5 L1159.5,570.5 L1158.5,570.5 L1157.5,571.5 L1155.5,571.5 L1154.5,572.5 L1104.5,572.5 L1103.5,571.5 L1102.5,572.5 L1098.5,572.5 L1097.5,571.5 L1093.5,571.5 L1092.5,570.5 L1092.5,567.5 L1093.5,566.5 L1097.5,566.5 L1098.5,565.5 L1103.5,565.5 L1104.5,564.5 L1106.5,564.5 L1106.5,563.5 L1105.5,562.5 L1104.5,562.5 L1105.5,563.5 L1104.5,564.5 L1103.5,564.5 L1102.5,563.5 L1101.5,564.5 L1100.5,563.5 Z M302.5,498.5 L302.5,499.5 L307.5,499.5 L308.5,500.5 L308.5,507.5 L369.5,507.5 L366.5,507.5 L365.5,506.5 L366.5,505.5 L369.5,505.5 L369.5,504.5 L370.5,503.5 L371.5,503.5 L371.5,502.5 L368.5,502.5 L366.5,504.5 L360.5,504.5 L359.5,505.5 L358.5,504.5 L356.5,504.5 L355.5,505.5 L353.5,505.5 L354.5,506.5 L353.5,507.5 L326.5,507.5 L325.5,506.5 L326.5,505.5 L327.5,505.5 L326.5,504.5 L327.5,503.5 L326.5,504.5 L325.5,503.5 L322.5,503.5 L321.5,504.5 L320.5,504.5 L320.5,506.5 L319.5,507.5 L317.5,507.5 L316.5,506.5 L317.5,505.5 L317.5,504.5 L316.5,504.5 L315.5,503.5 L314.5,503.5 L312.5,501.5 L309.5,501.5 L306.5,498.5 Z M1171.5,413.5 L1171.5,420.5 L1170.5,421.5 L1161.5,421.5 L1161.5,428.5 L1161.5,422.5 L1162.5,421.5 L1169.5,421.5 L1170.5,422.5 L1169.5,423.5 L1167.5,423.5 L1168.5,424.5 L1169.5,423.5 L1170.5,423.5 L1171.5,424.5 L1172.5,424.5 L1174.5,422.5 L1173.5,421.5 L1176.5,418.5 L1175.5,418.5 L1174.5,417.5 L1174.5,415.5 L1173.5,416.5 L1173.5,420.5 L1172.5,421.5 L1171.5,420.5 L1171.5,414.5 L1172.5,413.5 L1252.5,413.5 L1253.5,414.5 L1252.5,415.5 L1246.5,415.5 L1244.5,417.5 L1242.5,415.5 L1242.5,416.5 L1241.5,417.5 L1239.5,417.5 L1238.5,416.5 L1238.5,417.5 L1237.5,418.5 L1236.5,417.5 L1237.5,418.5 L1237.5,419.5 L1238.5,419.5 L1239.5,418.5 L1240.5,419.5 L1243.5,419.5 L1244.5,420.5 L1250.5,420.5 L1250.5,419.5 L1251.5,418.5 L1257.5,418.5 L1258.5,419.5 L1261.5,416.5 L1262.5,416.5 L1263.5,415.5 L1265.5,415.5 L1256.5,415.5 L1255.5,414.5 L1256.5,413.5 L1295.5,413.5 L1296.5,414.5 L1296.5,419.5 L1296.5,413.5 Z" fill="#111111" fill-rule="evenodd" opacity="0.24"/>
</svg>
