<svg xmlns="http://www.w3.org/2000/svg" width="2000" height="1200" viewBox="0 0 2000 1200">
  <defs>
    <style>
      .black { fill: #000; }
      .window { fill: #222529; stroke: #535a61; stroke-width: 1.5; }
      .chrome { fill: #262a30; }
      .tab-active { fill: #292e35; }
      .tab-idle { fill: #17191d; }
      .bg { fill: #222529; }
      .panel { fill: #222529; }
      .footer { fill: #292c2f; }
      .footer-deep { fill: #26292c; }
      .border { stroke: #464949; stroke-width: 1; shape-rendering: crispEdges; }
      .border-soft { stroke: #383c3e; stroke-width: 1; shape-rendering: crispEdges; }
      .traffic-red { fill: #ff5f57; }
      .traffic-yellow { fill: #ffbd2e; }
      .traffic-green { fill: #28c840; }
      .muted { fill: #859289; font: 17px ui-monospace, SFMono-Regular, Menlo, Consolas, monospace; }
      .muted-sm { fill: #859289; font: 14px ui-monospace, SFMono-Regular, Menlo, Consolas, monospace; }
      .dim { fill: #69756f; font: 17px ui-monospace, SFMono-Regular, Menlo, Consolas, monospace; }
      .text { fill: #d6d6d6; font: 17px ui-monospace, SFMono-Regular, Menlo, Consolas, monospace; }
      .text-bold { fill: #d6d6d6; font: 700 17px ui-monospace, SFMono-Regular, Menlo, Consolas, monospace; }
      .brand { fill: #dbd5bc; font: 700 italic 17px ui-monospace, SFMono-Regular, Menlo, Consolas, monospace; }
      .section { fill: #78b6ad; font: 700 17px ui-monospace, SFMono-Regular, Menlo, Consolas, monospace; }
      .accent { fill: #78b6ad; font: 700 17px ui-monospace, SFMono-Regular, Menlo, Consolas, monospace; }
      .accent-soft { fill: #87c9e5; font: 700 17px ui-monospace, SFMono-Regular, Menlo, Consolas, monospace; }
      .subtle { fill: #dbd5bc; font: 17px ui-monospace, SFMono-Regular, Menlo, Consolas, monospace; }
      .cursor { fill: #d6d6d6; font: 25px ui-monospace, SFMono-Regular, Menlo, Consolas, monospace; }
      .keycap { fill: #34383b; stroke: #565c5c; stroke-width: 1; }
      .keytext { fill: #d6d6d6; font: 700 15px ui-monospace, SFMono-Regular, Menlo, Consolas, monospace; }
      .hint { fill: #859289; font: 15px ui-monospace, SFMono-Regular, Menlo, Consolas, monospace; }
      .badge { fill: #24272a; stroke: #3e4345; stroke-width: 1; }
      .badge-text { fill: #859289; font: 14px ui-monospace, SFMono-Regular, Menlo, Consolas, monospace; }
    </style>
  </defs>

  <rect class="black" width="2000" height="1200"/>
  <rect class="window" x="60" y="42" width="1880" height="1096" rx="10"/>

  <!-- Terminal chrome -->
  <rect class="chrome" x="61" y="43" width="1878" height="31" rx="9"/>
  <circle class="traffic-red" cx="76" cy="58" r="7"/>
  <circle class="traffic-yellow" cx="98" cy="58" r="7"/>
  <circle class="traffic-green" cx="120" cy="58" r="7"/>
  <rect class="tab-idle" x="61" y="74" width="940" height="31"/>
  <rect class="tab-active" x="1001" y="74" width="908" height="31"/>
  <line class="border" x1="1001" y1="74" x2="1001" y2="105"/>
  <line class="border" x1="1909" y1="74" x2="1909" y2="105"/>
  <text class="muted-sm" x="338" y="95">cargo run -- serve --db ./sshoosh.sqlite --host 127.0.0.1 --port 2222</text>
  <text class="muted-sm" x="975" y="95">⌘1</text>
  <text class="text-bold" x="922" y="63">▣ sshoosh • #general</text>
  <text class="text-bold" x="1400" y="95">sshoosh • #general</text>
  <text class="muted-sm" x="1880" y="95">⌘2</text>
  <text class="muted" x="1924" y="96">＋</text>

  <!-- App surface -->
  <rect class="bg" x="61" y="105" width="1878" height="945"/>
  <line class="border" x1="61" y1="134" x2="1939" y2="134"/>
  <text class="brand" x="64" y="122">sshoosh</text>
  <text class="muted" x="1748" y="122">workspace</text>
  <text class="text-bold" x="1850" y="122">main</text>

  <!-- Sidebar -->
  <line class="border" x1="398" y1="134" x2="398" y2="1050"/>
  <text class="section" x="72" y="176">Channels</text>
  <text class="text-bold" x="72" y="196">#general</text>
  <text class="muted" x="90" y="216">└ wwo</text>
  <text class="subtle" x="72" y="252">DMs</text>

  <!-- Main content -->
  <text class="text-bold" x="410" y="176">wwo</text>
  <text class="muted" x="410" y="196">@shyalter · 1 comments · 2026-04-30T13:57:29.939064Z</text>
  <text class="muted" x="410" y="252">│ wow</text>
  <text class="accent-soft" x="428" y="272">@shyalter</text>
  <text class="muted" x="532" y="272">· 1h ago</text>

  <!-- Footer -->
  <rect class="footer" x="61" y="1050" width="1878" height="88"/>
  <line class="border" x1="61" y1="1050" x2="1939" y2="1050"/>
  <text class="cursor" x="86" y="1088">▌</text>

  <!-- Bottom context cluster -->
  <text class="accent" x="86" y="1122">normal</text>
  <text class="muted" x="158" y="1122">·</text>
  <text class="subtle" x="182" y="1122">#general</text>
  <rect class="badge" x="292" y="1102" width="92" height="27"/>
  <text class="badge-text" x="306" y="1121">0 unread</text>
  <rect class="badge" x="394" y="1102" width="142" height="27"/>
  <text class="badge-text" x="408" y="1121">0 notifications</text>
  <rect class="badge" x="546" y="1102" width="112" height="27"/>
  <text class="badge-text" x="560" y="1121">0 mentions</text>
  <text class="muted" x="680" y="1122">1 online</text>
  <text class="muted" x="778" y="1122">shyalter</text>
  <text class="dim" x="864" y="1122">(member)</text>

  <!-- Keycaps -->
  <rect class="keycap" x="1458" y="1103" width="42" height="24"/>
  <text class="keytext" x="1468" y="1121">tab</text>
  <text class="hint" x="1510" y="1121">detail</text>
  <rect class="keycap" x="1588" y="1103" width="24" height="24"/>
  <text class="keytext" x="1596" y="1121">/</text>
  <text class="hint" x="1622" y="1121">command</text>
  <rect class="keycap" x="1720" y="1103" width="24" height="24"/>
  <text class="keytext" x="1728" y="1121">?</text>
  <text class="hint" x="1754" y="1121">help</text>
  <rect class="keycap" x="1822" y="1103" width="24" height="24"/>
  <text class="keytext" x="1830" y="1121">q</text>
  <text class="hint" x="1856" y="1121">quit</text>
</svg>
